<svg version="1.1" viewBox="0.0 0.0 1024.0 768.0" fill="none" stroke="none" stroke-linecap="square" stroke-miterlimit="10" xmlns:xlink="http://www.w3.org/1999/xlink" xmlns="http://www.w3.org/2000/svg"><clipPath id="p.0"><path d="m0 0l1024.0 0l0 768.0l-1024.0 0l0 -768.0z" clip-rule="nonzero"/></clipPath><g clip-path="url(#p.0)"><path fill="#000000" d="m0 0l1024.0 0l0 768.0l-1024.0 0z" fill-rule="evenodd"/><path fill="#000000" fill-opacity="0.0" d="m0 0l1024.0 0l0 610.4252l-1024.0 0z" fill-rule="evenodd"/><path stroke="#000000" stroke-width="2.1784776902887137" stroke-linejoin="round" stroke-linecap="butt" d="m0 0l1024.0 0l0 610.4252l-1024.0 0z" fill-rule="evenodd"/><path fill="#ffffff" d="m77.26878 469.632l0 0c0 -6.4561157 5.2337112 -11.689819 11.689812 -11.689819l46.75785 0l0 0c3.1003265 0 6.0736847 1.2315979 8.265945 3.4238892c2.1922607 2.1922607 3.4238586 5.1655884 3.4238586 8.26593l0 46.757843c0 6.4561157 -5.2337036 11.689819 -11.689804 11.689819l-46.75785 0c-6.4561005 0 -11.689812 -5.2337036 -11.689812 -11.689819z" fill-rule="evenodd"/><path stroke="#eb516c" stroke-width="2.1784776902887137" stroke-linejoin="round" stroke-linecap="butt" d="m77.26878 469.632l0 0c0 -6.4561157 5.2337112 -11.689819 11.689812 -11.689819l46.75785 0l0 0c3.1003265 0 6.0736847 1.2315979 8.265945 3.4238892c2.1922607 2.1922607 3.4238586 5.1655884 3.4238586 8.26593l0 46.757843c0 6.4561157 -5.2337036 11.689819 -11.689804 11.689819l-46.75785 0c-6.4561005 0 -11.689812 -5.2337036 -11.689812 -11.689819z" fill-rule="evenodd"/><path fill="#01358d" d="m100.97874 493.58713q-2.453125 0 -4.6875 -0.640625q-2.234375 -0.65625 -3.59375 -1.703125l1.59375 -3.546875q1.3125 0.9375 3.09375 1.53125q1.78125 0.59375 3.609375 0.59375q1.40625 0 2.25 -0.28125q0.859375 -0.28125 1.265625 -0.765625q0.40625 -0.5 0.40625 -1.140625q0 -0.8125 -0.640625 -1.28125q-0.640625 -0.484375 -1.6875 -0.78125q-1.03125 -0.3125 -2.296875 -0.578125q-1.265625 -0.28125 -2.53125 -0.6875q-1.265625 -0.40625 -2.3125 -1.046875q-1.03125 -0.640625 -1.6875 -1.6875q-0.65625 -1.046875 -0.65625 -2.671875q0 -1.734375 0.9375 -3.171875q0.953125 -1.4375 2.84375 -2.296875q1.90625 -0.859375 4.78125 -0.859375q1.921875 0 3.78125 0.453125q1.859375 0.453125 3.28125 1.34375l-1.453125 3.578125q-1.421875 -0.8125 -2.84375 -1.203125q-1.421875 -0.390625 -2.796875 -0.390625q-1.359375 0 -2.234375 0.328125q-0.875 0.3125 -1.25 0.828125q-0.375 0.5 -0.375 1.15625q0 0.78125 0.640625 1.265625q0.640625 0.484375 1.6875 0.78125q1.046875 0.28125 2.296875 0.578125q1.265625 0.28125 2.53125 0.65625q1.265625 0.375 2.3125 1.015625q1.046875 0.640625 1.6875 1.6875q0.65625 1.046875 0.65625 2.640625q0 1.71875 -0.953125 3.140625q-0.953125 1.421875 -2.859375 2.296875q-1.90625 0.859375 -4.796875 0.859375zm21.646957 0q-2.40625 0 -4.421875 -0.765625q-2.015625 -0.765625 -3.515625 -2.1875q-1.5 -1.421875 -2.328125 -3.34375q-0.828125 -1.921875 -0.828125 -4.203125q0 -2.296875 0.828125 -4.203125q0.828125 -1.921875 2.34375 -3.34375q1.515625 -1.421875 3.546875 -2.1875q2.03125 -0.78125 4.46875 -0.78125q2.703125 0 4.859375 0.90625q2.1562424 0.890625 3.6406174 2.609375l-3.015625 2.78125q-1.1093674 -1.15625 -2.4218674 -1.71875q-1.296875 -0.5625 -2.828125 -0.5625q-1.484375 0 -2.703125 0.46875q-1.21875 0.453125 -2.109375 1.328125q-0.890625 0.859375 -1.375 2.0625q-0.46875 1.1875 -0.46875 2.640625q0 1.421875 0.46875 2.609375q0.484375 1.1875 1.375 2.078125q0.890625 0.875 2.09375 1.34375q1.203125 0.46875 2.65625 0.46875q1.390625 0 2.703125 -0.453125q1.328125 -0.453125 2.5781174 -1.515625l2.671875 3.390625q-1.65625 1.25 -3.8437424 1.921875q-2.1875 0.65625 -4.375 0.65625zm8.218742 -2.578125l-4.2968674 -0.609375l0 -7.640625l4.2968674 0l0 8.25z" fill-rule="nonzero"/><path fill="#f8546c" d="m108.53039 507.14767l-12.8471985 0l0 -4.22171l-8.443375 8.44339l8.443375 8.44339l0 -4.2216797l12.8471985 0z" fill-rule="evenodd"/><path fill="#01358d" d="m116.14461 515.1838l12.8471985 0l0 4.2216797l8.443375 -8.443359l-8.443375 -8.44339l0 4.22171l-12.8471985 0z" fill-rule="evenodd"/><path fill="#ffffff" d="m174.75504 469.632l0 0c0 -6.4561157 5.2337036 -11.689819 11.689804 -11.689819l46.757843 0l0 0c3.1003418 0 6.0736847 1.2315979 8.265945 3.4238892c2.192276 2.1922607 3.423874 5.1655884 3.423874 8.26593l0 46.757843c0 6.4561157 -5.2337036 11.689819 -11.689819 11.689819l-46.757843 0c-6.4561005 0 -11.689804 -5.2337036 -11.689804 -11.689819z" fill-rule="evenodd"/><path stroke="#eb516c" stroke-width="2.1784776902887137" stroke-linejoin="round" stroke-linecap="butt" d="m174.75504 469.632l0 0c0 -6.4561157 5.2337036 -11.689819 11.689804 -11.689819l46.757843 0l0 0c3.1003418 0 6.0736847 1.2315979 8.265945 3.4238892c2.192276 2.1922607 3.423874 5.1655884 3.423874 8.26593l0 46.757843c0 6.4561157 -5.2337036 11.689819 -11.689819 11.689819l-46.757843 0c-6.4561005 0 -11.689804 -5.2337036 -11.689804 -11.689819z" fill-rule="evenodd"/><path fill="#01358d" d="m198.46498 493.58713q-2.453125 0 -4.6875 -0.640625q-2.234375 -0.65625 -3.59375 -1.703125l1.59375 -3.546875q1.3125 0.9375 3.09375 1.53125q1.78125 0.59375 3.609375 0.59375q1.40625 0 2.25 -0.28125q0.859375 -0.28125 1.265625 -0.765625q0.40625 -0.5 0.40625 -1.140625q0 -0.8125 -0.640625 -1.28125q-0.640625 -0.484375 -1.6875 -0.78125q-1.03125 -0.3125 -2.296875 -0.578125q-1.265625 -0.28125 -2.53125 -0.6875q-1.265625 -0.40625 -2.3125 -1.046875q-1.03125 -0.640625 -1.6875 -1.6875q-0.65625 -1.046875 -0.65625 -2.671875q0 -1.734375 0.9375 -3.171875q0.953125 -1.4375 2.84375 -2.296875q1.90625 -0.859375 4.78125 -0.859375q1.921875 0 3.78125 0.453125q1.859375 0.453125 3.28125 1.34375l-1.453125 3.578125q-1.421875 -0.8125 -2.84375 -1.203125q-1.421875 -0.390625 -2.796875 -0.390625q-1.359375 0 -2.234375 0.328125q-0.875 0.3125 -1.25 0.828125q-0.375 0.5 -0.375 1.15625q0 0.78125 0.640625 1.265625q0.640625 0.484375 1.6875 0.78125q1.046875 0.28125 2.296875 0.578125q1.265625 0.28125 2.53125 0.65625q1.265625 0.375 2.3125 1.015625q1.046875 0.640625 1.6875 1.6875q0.65625 1.046875 0.65625 2.640625q0 1.71875 -0.953125 3.140625q-0.953125 1.421875 -2.859375 2.296875q-1.90625 0.859375 -4.796875 0.859375zm21.646957 0q-2.40625 0 -4.421875 -0.765625q-2.015625 -0.765625 -3.515625 -2.1875q-1.5 -1.421875 -2.328125 -3.34375q-0.828125 -1.921875 -0.828125 -4.203125q0 -2.296875 0.828125 -4.203125q0.828125 -1.921875 2.34375 -3.34375q1.515625 -1.421875 3.546875 -2.1875q2.03125 -0.78125 4.46875 -0.78125q2.703125 0 4.859375 0.90625q2.15625 0.890625 3.640625 2.609375l-3.015625 2.78125q-1.109375 -1.15625 -2.421875 -1.71875q-1.296875 -0.5625 -2.828125 -0.5625q-1.484375 0 -2.703125 0.46875q-1.21875 0.453125 -2.109375 1.328125q-0.890625 0.859375 -1.375 2.0625q-0.46875 1.1875 -0.46875 2.640625q0 1.421875 0.46875 2.609375q0.484375 1.1875 1.375 2.078125q0.890625 0.875 2.09375 1.34375q1.203125 0.46875 2.65625 0.46875q1.390625 0 2.703125 -0.453125q1.328125 -0.453125 2.578125 -1.515625l2.671875 3.390625q-1.65625 1.25 -3.84375 1.921875q-2.1875 0.65625 -4.375 0.65625zm8.21875 -2.578125l-4.296875 -0.609375l0 -7.640625l4.296875 0l0 8.25z" fill-rule="nonzero"/><path fill="#f8546c" d="m206.01663 507.14767l-12.8471985 0l0 -4.22171l-8.443375 8.44339l8.443375 8.44339l0 -4.2216797l12.8471985 0z" fill-rule="evenodd"/><path fill="#01358d" d="m213.63084 515.1838l12.847214 0l0 4.2216797l8.443359 -8.443359l-8.443359 -8.44339l0 4.22171l-12.847214 0z" fill-rule="evenodd"/><path fill="#000000" fill-opacity="0.0" d="m209.82376 457.94217c0 -31.586761 65.81891 -47.378235 131.63779 -63.173523c65.81891 -15.795258 131.63782 -31.59433 131.63782 -63.18866" fill-rule="evenodd"/><path stroke="#eb516c" stroke-width="2.1784776902887137" stroke-linejoin="round" stroke-linecap="butt" d="m209.82376 457.94217c0 -31.586761 65.81891 -47.378235 131.63779 -63.173523c65.81891 -15.795258 131.63782 -31.59433 131.63782 -63.18866" fill-rule="evenodd"/><path fill="#000000" fill-opacity="0.0" d="m112.337524 457.94217c0 -31.586761 90.18898 -47.378235 180.37796 -63.173523c90.188965 -15.795258 180.37793 -31.59433 180.37793 -63.18866" fill-rule="evenodd"/><path stroke="#eb516c" stroke-width="2.1784776902887137" stroke-linejoin="round" stroke-linecap="butt" d="m112.337524 457.94217c0 -31.586761 90.18898 -47.378235 180.37796 -63.173523c90.188965 -15.795258 180.37793 -31.59433 180.37793 -63.18866" fill-rule="evenodd"/><path fill="#ffffff" d="m492.03656 302.73688l0 0c0 -1.6946106 -1.3737183 -3.0683289 -3.0682983 -3.0683289l-31.754486 0c-0.8137512 0 -1.5942078 0.3232727 -2.1696167 0.89868164c-0.57543945 0.57543945 -0.89871216 1.3558655 -0.89871216 2.1696472l0 25.785156c0 1.6945801 1.3737488 3.0683289 3.0683289 3.0683289l31.754486 0c1.6945801 0 3.0682983 -1.3737488 3.0682983 -3.0683289z" fill-rule="evenodd"/><path stroke="#f9556d" stroke-width="2.1784776902887137" stroke-linejoin="round" stroke-linecap="butt" d="m492.03656 302.73688l0 0c0 -1.6946106 -1.3737183 -3.0683289 -3.0682983 -3.0683289l-31.754486 0c-0.8137512 0 -1.5942078 0.3232727 -2.1696167 0.89868164c-0.57543945 0.57543945 -0.89871216 1.3558655 -0.89871216 2.1696472l0 25.785156c0 1.6945801 1.3737488 3.0683289 3.0683289 3.0683289l31.754486 0c1.6945801 0 3.0682983 -1.3737488 3.0682983 -3.0683289z" fill-rule="evenodd"/><path fill="#01358d" d="m470.94022 305.53848l-7.1387634 0l0 -2.4421997l-4.8843994 4.8843994l4.8843994 4.8843994l0 -2.4421997l7.1387634 0z" fill-rule="evenodd"/><path fill="#f8546c" d="m470.94037 321.07437l-7.138733 0l0 -2.4421997l-4.8843994 4.8843994l4.8843994 4.8843994l0 -2.4421997l7.138733 0z" fill-rule="evenodd"/><path fill="#01358d" d="m475.23517 325.71478l7.138733 0l0 2.4421997l4.8843994 -4.8843994l-4.8843994 -4.8843994l0 2.4421997l-7.138733 0z" fill-rule="evenodd"/><path fill="#f8546c" d="m475.235 310.1789l7.1387634 0l0 2.4421997l4.8843994 -4.8843994l-4.8843994 -4.88443l0 2.4421997l-7.1387634 0z" fill-rule="evenodd"/><path fill="#ffffff" d="m542.82837 302.73688l0 0c0 -1.6946106 -1.3737793 -3.0683289 -3.0683594 -3.0683289l-31.754456 0c-0.8137512 0 -1.5942078 0.3232727 -2.1696167 0.89868164c-0.57543945 0.57543945 -0.89871216 1.3558655 -0.89871216 2.1696472l0 25.785156c0 1.6945801 1.3737488 3.0683289 3.0683289 3.0683289l31.754456 0c1.6945801 0 3.0683594 -1.3737488 3.0683594 -3.0683289z" fill-rule="evenodd"/><path stroke="#f9556d" stroke-width="2.1784776902887137" stroke-linejoin="round" stroke-linecap="butt" d="m542.82837 302.73688l0 0c0 -1.6946106 -1.3737793 -3.0683289 -3.0683594 -3.0683289l-31.754456 0c-0.8137512 0 -1.5942078 0.3232727 -2.1696167 0.89868164c-0.57543945 0.57543945 -0.89871216 1.3558655 -0.89871216 2.1696472l0 25.785156c0 1.6945801 1.3737488 3.0683289 3.0683289 3.0683289l31.754456 0c1.6945801 0 3.0683594 -1.3737488 3.0683594 -3.0683289z" fill-rule="evenodd"/><path fill="#01358d" d="m521.732 305.53848l-7.138733 0l0 -2.4421997l-4.88443 4.8843994l4.88443 4.8843994l0 -2.4421997l7.138733 0z" fill-rule="evenodd"/><path fill="#f8546c" d="m521.7322 321.07437l-7.138794 0l0 -2.4421997l-4.884369 4.8843994l4.884369 4.8843994l0 -2.4421997l7.138794 0z" fill-rule="evenodd"/><path fill="#01358d" d="m526.0269 325.71478l7.138733 0l0 2.4421997l4.8843994 -4.8843994l-4.8843994 -4.8843994l0 2.4421997l-7.138733 0z" fill-rule="evenodd"/><path fill="#f8546c" d="m526.0268 310.1789l7.138733 0l0 2.4421997l4.8843994 -4.8843994l-4.8843994 -4.88443l0 2.4421997l-7.138733 0z" fill-rule="evenodd"/><path fill="#000000" fill-opacity="0.0" d="m385.45105 119.85464l0 0c0 -3.138321 -2.5441284 -5.682434 -5.682434 -5.682434l-254.02097 0c-1.5070801 0 -2.952423 0.5986862 -4.0180893 1.6643448c-1.0656662 1.0656662 -1.6643448 2.5110168 -1.6643448 4.0180893l0 47.753242c0 3.138321 2.5441132 5.682434 5.682434 5.682434l254.02097 0c3.1383057 0 5.682434 -2.5441132 5.682434 -5.682434z" fill-rule="evenodd"/><path stroke="#f9556d" stroke-width="2.1784776902887137" stroke-linejoin="round" stroke-linecap="butt" d="m385.45105 119.85464l0 0c0 -3.138321 -2.5441284 -5.682434 -5.682434 -5.682434l-254.02097 0c-1.5070801 0 -2.952423 0.5986862 -4.0180893 1.6643448c-1.0656662 1.0656662 -1.6643448 2.5110168 -1.6643448 4.0180893l0 47.753242c0 3.138321 2.5441132 5.682434 5.682434 5.682434l254.02097 0c3.1383057 0 5.682434 -2.5441132 5.682434 -5.682434z" fill-rule="evenodd"/><path fill="#ffffff" d="m162.00372 138.85274l0 -14.218758l6.953125 0q2.671875 0 4.015625 1.015625q1.359375 1.015625 1.359375 2.6875076q0 1.109375 -0.546875 1.9375q-0.546875 0.8125 -1.5 1.265625q-0.953125 0.453125 -2.203125 0.453125l0.390625 -0.84375q1.34375 0 2.375 0.4375q1.03125 0.4375 1.609375 1.296875q0.59375 0.84375 0.59375 2.09375q0 1.828125 -1.453125 2.859375q-1.4375 1.015625 -4.234375 1.015625l-7.359375 0zm3.265625 -2.484375l3.84375 0q1.28125 0 1.9375 -0.40625q0.65625 -0.421875 0.65625 -1.328125q0 -0.90625 -0.65625 -1.34375q-0.65625 -0.4375 -1.9375 -0.4375l-4.078125 0l0 -2.390625l3.515625 0q1.1875 0 1.828125 -0.40625q0.640625 -0.421875 0.640625 -1.28125q0 -0.8281326 -0.640625 -1.2343826q-0.640625 -0.421875 -1.828125 -0.421875l-3.28125 0l0 9.250008zm17.242218 2.640625q-1.734375 0 -3.09375 -0.71875q-1.34375 -0.734375 -2.125 -2.0q-0.78125 -1.28125 -0.78125 -2.90625q0 -1.640625 0.78125 -2.90625q0.78125 -1.28125 2.125 -2.0q1.359375 -0.7187576 3.09375 -0.7187576q1.734375 0 3.09375 0.7187576q1.359375 0.71875 2.125 1.984375q0.78125 1.265625 0.78125 2.921875q0 1.625 -0.78125 2.90625q-0.765625 1.265625 -2.125 2.0q-1.359375 0.71875 -3.09375 0.71875zm0 -2.59375q0.796875 0 1.421875 -0.359375q0.640625 -0.375 1.0 -1.046875q0.375 -0.6875 0.375 -1.625q0 -0.953125 -0.375 -1.625q-0.359375 -0.671875 -1.0 -1.03125q-0.625 -0.359375 -1.421875 -0.359375q-0.78125 0 -1.421875 0.359375q-0.625 0.359375 -1.0 1.03125q-0.375 0.671875 -0.375 1.625q0 0.9375 0.375 1.625q0.375 0.671875 1.0 1.046875q0.640625 0.359375 1.421875 0.359375zm8.117218 2.4375l0 -10.921883l3.015625 0l0 3.0781326l-0.421875 -0.890625q0.484375 -1.15625 1.5625 -1.75q1.078125 -0.6093826 2.625 -0.6093826l0 2.9218826q-0.203125 -0.015625 -0.375 -0.015625q-0.15625 -0.015625 -0.34375 -0.015625q-1.296875 0 -2.109375 0.75q-0.796875 0.734375 -0.796875 2.296875l0 5.15625l-3.15625 0zm13.259277 0.15625q-1.546875 0 -2.78125 -0.6875q-1.234375 -0.703125 -1.96875 -1.96875q-0.71875 -1.265625 -0.71875 -2.96875q0 -1.71875 0.71875 -2.96875q0.734375 -1.265625 1.96875 -1.953125q1.234375 -0.7031326 2.78125 -0.7031326q1.375 0 2.40625 0.6093826q1.046875 0.609375 1.609375 1.859375q0.578125 1.234375 0.578125 3.15625q0 1.90625 -0.546875 3.15625q-0.546875 1.25 -1.578125 1.859375q-1.03125 0.609375 -2.46875 0.609375zm0.546875 -2.59375q0.765625 0 1.390625 -0.359375q0.640625 -0.375 1.015625 -1.046875q0.375 -0.6875 0.375 -1.625q0 -0.953125 -0.375 -1.625q-0.375 -0.671875 -1.015625 -1.03125q-0.625 -0.359375 -1.390625 -0.359375q-0.796875 0 -1.421875 0.359375q-0.625 0.359375 -1.0 1.03125q-0.375 0.671875 -0.375 1.625q0 0.9375 0.375 1.625q0.375 0.671875 1.0 1.046875q0.625 0.359375 1.421875 0.359375zm2.859375 2.4375l0 -2.234375l0.0625 -3.25l-0.203125 -3.234375l0 -6.3593826l3.171875 0l0 15.078133l-3.03125 0zm11.384415 0.15625q-1.875 0 -3.296875 -0.71875q-1.40625 -0.734375 -2.171875 -2.0q-0.765625 -1.28125 -0.765625 -2.90625q0 -1.640625 0.75 -2.90625q0.765625 -1.28125 2.078125 -2.0q1.328125 -0.7187576 3.0 -0.7187576q1.59375 0 2.890625 0.6875076q1.296875 0.671875 2.046875 1.953125q0.75 1.265625 0.75 3.03125q0 0.1875 -0.03125 0.421875q-0.015625 0.21875 -0.03125 0.421875l-8.875 0l0 -1.84375l7.203125 0l-1.21875 0.546875q0 -0.84375 -0.34375 -1.46875q-0.34375 -0.640625 -0.953125 -0.984375q-0.609375 -0.359375 -1.421875 -0.359375q-0.8125 0 -1.4375 0.359375q-0.609375 0.34375 -0.953125 0.984375q-0.34375 0.640625 -0.34375 1.515625l0 0.484375q0 0.890625 0.390625 1.578125q0.390625 0.671875 1.109375 1.03125q0.734375 0.359375 1.703125 0.359375q0.875 0 1.53125 -0.265625q0.65625 -0.265625 1.203125 -0.796875l1.6875 1.828125q-0.75 0.859375 -1.890625 1.3125q-1.125 0.453125 -2.609375 0.453125zm7.39534 -0.15625l0 -10.921883l3.015625 0l0 3.0781326l-0.421875 -0.890625q0.484375 -1.15625 1.5625 -1.75q1.078125 -0.6093826 2.625 -0.6093826l0 2.9218826q-0.203125 -0.015625 -0.375 -0.015625q-0.15625 -0.015625 -0.34375 -0.015625q-1.296875 0 -2.109375 0.75q-0.796875 0.734375 -0.796875 2.296875l0 5.15625l-3.15625 0zm21.581284 0.25q-1.6875 0 -3.09375 -0.53125q-1.40625 -0.546875 -2.453125 -1.546875q-1.046875 -1.0 -1.625 -2.328125q-0.578125 -1.34375 -0.578125 -2.953125q0 -1.609375 0.578125 -2.9375q0.578125 -1.3437576 1.625 -2.3437576q1.0625 -1.0 2.484375 -1.53125q1.421875 -0.546875 3.125 -0.546875q1.890625 0 3.40625 0.640625q1.515625 0.625 2.546875 1.828125l-2.109375 1.9375076q-0.765625 -0.8125076 -1.6875 -1.2031326q-0.90625 -0.390625 -1.984375 -0.390625q-1.046875 0 -1.90625 0.328125q-0.84375 0.3125 -1.46875 0.9218826q-0.609375 0.609375 -0.953125 1.453125q-0.328125 0.828125 -0.328125 1.84375q0 1.0 0.328125 1.828125q0.34375 0.828125 0.953125 1.453125q0.625 0.625 1.46875 0.953125q0.84375 0.3125 1.859375 0.3125q0.96875 0 1.890625 -0.3125q0.9375 -0.3125 1.8125 -1.0625l1.859375 2.375q-1.15625 0.875 -2.6875 1.34375q-1.53125 0.46875 -3.0625 0.46875zm5.75 -1.8125l-3.0 -0.421875l0 -5.34375l3.0 0l0 5.765625zm9.5359955 1.5625l0 -2.140625l-0.203125 -0.453125l0 -3.828125q0 -1.015625 -0.625 -1.578125q-0.625 -0.578125 -1.90625 -0.578125q-0.859375 0 -1.703125 0.28125q-0.84375 0.265625 -1.4375 0.734375l-1.1406403 -2.203125q0.89064026 -0.640625 2.1562653 -0.984375q1.265625 -0.34375763 2.5625 -0.34375763q2.5 0 3.875 1.1875076q1.375 1.171875 1.375 3.671875l0 6.234375l-2.953125 0zm-3.34375 0.15625q-1.265625 0 -2.1875 -0.4375q-0.90625 -0.4375 -1.40625 -1.1875q-0.48439026 -0.75 -0.48439026 -1.6875q0 -0.96875 0.46875 -1.703125q0.48439026 -0.734375 1.5156403 -1.140625q1.046875 -0.421875 2.703125 -0.421875l2.90625 0l0 1.84375l-2.546875 0q-1.125 0 -1.546875 0.375q-0.40625 0.359375 -0.40625 0.90625q0 0.609375 0.46875 0.96875q0.484375 0.359375 1.3125 0.359375q0.796875 0 1.421875 -0.375q0.625 -0.375 0.921875 -1.109375l0.484375 1.46875q-0.34375 1.046875 -1.265625 1.59375q-0.90625 0.546875 -2.359375 0.546875zm13.642212 0q-1.9375 0 -3.015625 -0.984375q-1.078125 -0.984375 -1.078125 -2.9375l0 -9.578133l3.171875 0l0 9.546883q0 0.6875 0.359375 1.0625q0.375 0.375 1.0 0.375q0.75 0 1.28125 -0.40625l0.859375 2.234375q-0.484375 0.34375 -1.171875 0.515625q-0.6875 0.171875 -1.40625 0.171875zm-5.78125 -8.640625l0 -2.4375076l7.578125 0l0 2.4375076l-7.578125 0zm15.224762 8.640625q-1.875 0 -3.296875 -0.71875q-1.40625 -0.734375 -2.171875 -2.0q-0.765625 -1.28125 -0.765625 -2.90625q0 -1.640625 0.75 -2.90625q0.765625 -1.28125 2.078125 -2.0q1.328125 -0.7187576 3.0 -0.7187576q1.59375 0 2.890625 0.6875076q1.296875 0.671875 2.046875 1.953125q0.75 1.265625 0.75 3.03125q0 0.1875 -0.03125 0.421875q-0.015625 0.21875 -0.03125 0.421875l-8.875 0l0 -1.84375l7.203125 0l-1.21875 0.546875q0 -0.84375 -0.34375 -1.46875q-0.34375 -0.640625 -0.953125 -0.984375q-0.609375 -0.359375 -1.421875 -0.359375q-0.8125 0 -1.4375 0.359375q-0.609375 0.34375 -0.953125 0.984375q-0.34375 0.640625 -0.34375 1.515625l0 0.484375q0 0.890625 0.390625 1.578125q0.390625 0.671875 1.109375 1.03125q0.734375 0.359375 1.703125 0.359375q0.875 0 1.53125 -0.265625q0.65625 -0.265625 1.203125 -0.796875l1.6875 1.828125q-0.75 0.859375 -1.890625 1.3125q-1.125 0.453125 -2.609375 0.453125zm9.692047 -0.15625l-3.953125 -10.921883l2.984375 0l3.28125 9.390633l-1.421875 0l3.40625 -9.390633l2.6875 0l3.3125 9.390633l-1.421875 0l3.359375 -9.390633l2.8125 0l-3.96875 10.921883l-3.0625 0l-2.90625 -8.0625l0.9375 0l-3.0 8.0625l-3.046875 0zm22.788788 0l0 -2.140625l-0.203125 -0.453125l0 -3.828125q0 -1.015625 -0.625 -1.578125q-0.625 -0.578125 -1.90625 -0.578125q-0.859375 0 -1.703125 0.28125q-0.84375 0.265625 -1.4375 0.734375l-1.140625 -2.203125q0.890625 -0.640625 2.15625 -0.984375q1.265625 -0.34375763 2.5625 -0.34375763q2.5 0 3.875 1.1875076q1.375 1.171875 1.375 3.671875l0 6.234375l-2.953125 0zm-3.34375 0.15625q-1.265625 0 -2.1875 -0.4375q-0.90625 -0.4375 -1.40625 -1.1875q-0.484375 -0.75 -0.484375 -1.6875q0 -0.96875 0.46875 -1.703125q0.484375 -0.734375 1.515625 -1.140625q1.046875 -0.421875 2.703125 -0.421875l2.90625 0l0 1.84375l-2.546875 0q-1.125 0 -1.546875 0.375q-0.40625 0.359375 -0.40625 0.90625q0 0.609375 0.46875 0.96875q0.484375 0.359375 1.3125 0.359375q0.796875 0 1.421875 -0.375q0.625 -0.375 0.921875 -1.109375l0.484375 1.46875q-0.34375 1.046875 -1.265625 1.59375q-0.90625 0.546875 -2.359375 0.546875zm10.365509 3.953125q-0.859375 0 -1.6875 -0.265625q-0.828125 -0.265625 -1.359375 -0.734375l1.15625 -2.25q0.375 0.3125 0.84375 0.5q0.484375 0.1875 0.953125 0.1875q0.65625 0 1.046875 -0.3125q0.40625 -0.3125 0.734375 -1.046875l0.5625 -1.34375l0.25 -0.34375l3.921875 -9.421883l3.046875 0l-4.9375 11.593758q-0.53125 1.3125 -1.21875 2.0625q-0.671875 0.765625 -1.5 1.0625q-0.8125 0.3125 -1.8125 0.3125zm1.875 -3.6875l-4.875 -11.343758l3.265625 0l3.78125 9.140633l-2.171875 2.203125zm12.50473 1.609375l6.703125 -19.140633l2.828125 0l-6.703125 19.140633l-2.828125 0z" fill-rule="nonzero"/><path fill="#ffffff" d="m156.49904 163.24538l0 -14.21875l6.15625 0q1.90625 0 3.28125 0.625q1.390625 0.609375 2.140625 1.765625q0.75 1.15625 0.75 2.765625q0 1.59375 -0.75 2.75q-0.75 1.15625 -2.140625 1.78125q-1.375 0.609375 -3.28125 0.609375l-4.328125 0l1.46875 -1.484375l0 5.40625l-3.296875 0zm3.296875 -5.03125l-1.46875 -1.578125l4.140625 0q1.53125 0 2.28125 -0.640625q0.75 -0.65625 0.75 -1.8125q0 -1.171875 -0.75 -1.8125q-0.75 -0.65625 -2.28125 -0.65625l-4.140625 0l1.46875 -1.578125l0 8.078125zm16.551437 5.1875q-1.875 0 -3.296875 -0.71875q-1.40625 -0.734375 -2.171875 -2.0q-0.765625 -1.28125 -0.765625 -2.90625q0 -1.640625 0.75 -2.90625q0.765625 -1.28125 2.078125 -2.0q1.328125 -0.71875 3.0 -0.71875q1.59375 0 2.890625 0.6875q1.296875 0.671875 2.046875 1.953125q0.75 1.265625 0.75 3.03125q0 0.1875 -0.03125 0.421875q-0.015625 0.21875 -0.03125 0.421875l-8.875 0l0 -1.84375l7.203125 0l-1.21875 0.546875q0 -0.84375 -0.34375 -1.46875q-0.34375 -0.640625 -0.953125 -0.984375q-0.609375 -0.359375 -1.421875 -0.359375q-0.8125 0 -1.4375 0.359375q-0.609375 0.34375 -0.953125 0.984375q-0.34375 0.640625 -0.34375 1.515625l0 0.484375q0 0.890625 0.390625 1.578125q0.390625 0.671875 1.109375 1.03125q0.734375 0.359375 1.703125 0.359375q0.875 0 1.53125 -0.265625q0.65625 -0.265625 1.203125 -0.796875l1.6875 1.828125q-0.75 0.859375 -1.890625 1.3125q-1.125 0.453125 -2.609375 0.453125zm7.39534 -0.15625l0 -10.921875l3.015625 0l0 3.078125l-0.421875 -0.890625q0.484375 -1.15625 1.5625 -1.75q1.078125 -0.609375 2.625 -0.609375l0 2.921875q-0.203125 -0.015625 -0.375 -0.015625q-0.15625 -0.015625 -0.34375 -0.015625q-1.296875 0 -2.109375 0.75q-0.796875 0.734375 -0.796875 2.296875l0 5.15625l-3.15625 0zm8.673401 0l0 -10.921875l3.15625 0l0 10.921875l-3.15625 0zm1.578125 -12.453125q-0.875 0 -1.421875 -0.5q-0.546875 -0.515625 -0.546875 -1.265625q0 -0.75 0.546875 -1.25q0.546875 -0.515625 1.421875 -0.515625q0.875 0 1.421875 0.484375q0.546875 0.46875 0.546875 1.21875q0 0.796875 -0.546875 1.3125q-0.53125 0.515625 -1.421875 0.515625zm4.5359497 12.453125l0 -10.921875l3.015625 0l0 2.984375l-0.5625 -0.875q0.5625 -1.125 1.609375 -1.703125q1.046875 -0.578125 2.390625 -0.578125q1.5 0 2.625 0.765625q1.140625 0.765625 1.5 2.328125l-1.125 -0.3125q0.5625 -1.28125 1.765625 -2.03125q1.203125 -0.75 2.765625 -0.75q1.3125 0 2.3125 0.515625q1.0 0.515625 1.578125 1.59375q0.578125 1.0625 0.578125 2.734375l0 6.25l-3.15625 0l0 -5.765625q0 -1.328125 -0.5625 -1.953125q-0.546875 -0.625 -1.53125 -0.625q-0.703125 0 -1.25 0.3125q-0.546875 0.3125 -0.859375 0.953125q-0.296875 0.625 -0.296875 1.59375l0 5.484375l-3.171875 0l0 -5.765625q0 -1.328125 -0.53125 -1.953125q-0.53125 -0.625 -1.53125 -0.625q-0.6875 0 -1.25 0.3125q-0.546875 0.3125 -0.859375 0.953125q-0.296875 0.625 -0.296875 1.59375l0 5.484375l-3.15625 0zm26.81105 0.15625q-1.875 0 -3.296875 -0.71875q-1.40625 -0.734375 -2.171875 -2.0q-0.765625 -1.28125 -0.765625 -2.90625q0 -1.640625 0.75 -2.90625q0.765625 -1.28125 2.078125 -2.0q1.328125 -0.71875 3.0 -0.71875q1.59375 0 2.890625 0.6875q1.296875 0.671875 2.046875 1.953125q0.75 1.265625 0.75 3.03125q0 0.1875 -0.03125 0.421875q-0.015625 0.21875 -0.03125 0.421875l-8.875 0l0 -1.84375l7.203125 0l-1.21875 0.546875q0 -0.84375 -0.34375 -1.46875q-0.34375 -0.640625 -0.953125 -0.984375q-0.609375 -0.359375 -1.421875 -0.359375q-0.8125 0 -1.4375 0.359375q-0.609375 0.34375 -0.953125 0.984375q-0.34375 0.640625 -0.34375 1.515625l0 0.484375q0 0.890625 0.390625 1.578125q0.390625 0.671875 1.109375 1.03125q0.734375 0.359375 1.703125 0.359375q0.875 0 1.53125 -0.265625q0.65625 -0.265625 1.203125 -0.796875l1.6875 1.828125q-0.75 0.859375 -1.890625 1.3125q-1.125 0.453125 -2.609375 0.453125zm11.86409 0q-1.9375 0 -3.015625 -0.984375q-1.078125 -0.984375 -1.078125 -2.9375l0 -9.578125l3.171875 0l0 9.546875q0 0.6875 0.359375 1.0625q0.375 0.375 1.0 0.375q0.75 0 1.28125 -0.40625l0.859375 2.234375q-0.484375 0.34375 -1.171875 0.515625q-0.6875 0.171875 -1.40625 0.171875zm-5.78125 -8.640625l0 -2.4375l7.578125 0l0 2.4375l-7.578125 0zm15.224762 8.640625q-1.875 0 -3.296875 -0.71875q-1.40625 -0.734375 -2.171875 -2.0q-0.765625 -1.28125 -0.765625 -2.90625q0 -1.640625 0.75 -2.90625q0.765625 -1.28125 2.078125 -2.0q1.328125 -0.71875 3.0 -0.71875q1.59375 0 2.890625 0.6875q1.296875 0.671875 2.046875 1.953125q0.75 1.265625 0.75 3.03125q0 0.1875 -0.03125 0.421875q-0.015625 0.21875 -0.03125 0.421875l-8.875 0l0 -1.84375l7.203125 0l-1.21875 0.546875q0 -0.84375 -0.34375 -1.46875q-0.34375 -0.640625 -0.953125 -0.984375q-0.609375 -0.359375 -1.421875 -0.359375q-0.8125 0 -1.4375 0.359375q-0.609375 0.34375 -0.953125 0.984375q-0.34375 0.640625 -0.34375 1.515625l0 0.484375q0 0.890625 0.390625 1.578125q0.390625 0.671875 1.109375 1.03125q0.734375 0.359375 1.703125 0.359375q0.875 0 1.53125 -0.265625q0.65625 -0.265625 1.203125 -0.796875l1.6875 1.828125q-0.75 0.859375 -1.890625 1.3125q-1.125 0.453125 -2.609375 0.453125zm7.3953247 -0.15625l0 -10.921875l3.0156403 0l0 3.078125l-0.421875 -0.890625q0.484375 -1.15625 1.5625 -1.75q1.078125 -0.609375 2.625 -0.609375l0 2.921875q-0.203125 -0.015625 -0.375 -0.015625q-0.15625 -0.015625 -0.34375 -0.015625q-1.296875 0 -2.109375 0.75q-0.796875 0.734375 -0.796875 2.296875l0 5.15625l-3.1562653 0zm14.721939 0l0 -14.21875l10.75 0l0 2.640625l-7.453125 0l0 11.578125l-3.296875 0zm3.046875 -5.1875l0 -2.640625l6.828125 0l0 2.640625l-6.828125 0zm9.714081 5.1875l0 -10.921875l3.15625 0l0 10.921875l-3.15625 0zm1.578125 -12.453125q-0.875 0 -1.421875 -0.5q-0.546875 -0.515625 -0.546875 -1.265625q0 -0.75 0.546875 -1.25q0.546875 -0.515625 1.421875 -0.515625q0.875 0 1.421875 0.484375q0.546875 0.46875 0.546875 1.21875q0 0.796875 -0.546875 1.3125q-0.53125 0.515625 -1.421875 0.515625zm4.5359497 12.453125l0 -10.921875l3.015625 0l0 3.078125l-0.421875 -0.890625q0.484375 -1.15625 1.5625 -1.75q1.078125 -0.609375 2.625 -0.609375l0 2.921875q-0.203125 -0.015625 -0.375 -0.015625q-0.15625 -0.015625 -0.34375 -0.015625q-1.296875 0 -2.109375 0.75q-0.796875 0.734375 -0.796875 2.296875l0 5.15625l-3.15625 0zm13.993652 0.15625q-1.875 0 -3.296875 -0.71875q-1.40625 -0.734375 -2.171875 -2.0q-0.765625 -1.28125 -0.765625 -2.90625q0 -1.640625 0.75 -2.90625q0.765625 -1.28125 2.078125 -2.0q1.328125 -0.71875 3.0 -0.71875q1.59375 0 2.890625 0.6875q1.296875 0.671875 2.046875 1.953125q0.75 1.265625 0.75 3.03125q0 0.1875 -0.03125 0.421875q-0.015625 0.21875 -0.03125 0.421875l-8.875 0l0 -1.84375l7.203125 0l-1.21875 0.546875q0 -0.84375 -0.34375 -1.46875q-0.34375 -0.640625 -0.953125 -0.984375q-0.609375 -0.359375 -1.421875 -0.359375q-0.8125 0 -1.4375 0.359375q-0.609375 0.34375 -0.953125 0.984375q-0.34375 0.640625 -0.34375 1.515625l0 0.484375q0 0.890625 0.390625 1.578125q0.390625 0.671875 1.109375 1.03125q0.734375 0.359375 1.703125 0.359375q0.875 0 1.53125 -0.265625q0.65625 -0.265625 1.203125 -0.796875l1.6875 1.828125q-0.75 0.859375 -1.890625 1.3125q-1.125 0.453125 -2.609375 0.453125zm9.692078 -0.15625l-3.953125 -10.921875l2.984375 0l3.28125 9.390625l-1.421875 0l3.40625 -9.390625l2.6875 0l3.3125 9.390625l-1.421875 0l3.359375 -9.390625l2.8125 0l-3.96875 10.921875l-3.0625 0l-2.90625 -8.0625l0.9375 0l-3.0 8.0625l-3.046875 0zm22.788757 0l0 -2.140625l-0.203125 -0.453125l0 -3.828125q0 -1.015625 -0.625 -1.578125q-0.625 -0.578125 -1.90625 -0.578125q-0.859375 0 -1.703125 0.28125q-0.84375 0.265625 -1.4375 0.734375l-1.140625 -2.203125q0.890625 -0.640625 2.15625 -0.984375q1.265625 -0.34375 2.5625 -0.34375q2.5 0 3.875 1.1875q1.375 1.171875 1.375 3.671875l0 6.234375l-2.953125 0zm-3.34375 0.15625q-1.265625 0 -2.1875 -0.4375q-0.90625 -0.4375 -1.40625 -1.1875q-0.484375 -0.75 -0.484375 -1.6875q0 -0.96875 0.46875 -1.703125q0.484375 -0.734375 1.515625 -1.140625q1.046875 -0.421875 2.703125 -0.421875l2.90625 0l0 1.84375l-2.546875 0q-1.125 0 -1.546875 0.375q-0.40625 0.359375 -0.40625 0.90625q0 0.609375 0.46875 0.96875q0.484375 0.359375 1.3125 0.359375q0.796875 0 1.421875 -0.375q0.625 -0.375 0.921875 -1.109375l0.484375 1.46875q-0.34375 1.046875 -1.265625 1.59375q-0.90625 0.546875 -2.359375 0.546875zm9.173462 -0.15625l0 -15.078125l3.15625 0l0 15.078125l-3.15625 0zm6.1140747 0l0 -15.078125l3.15625 0l0 15.078125l-3.15625 0z" fill-rule="nonzero"/><path fill="#000000" fill-opacity="0.0" d="m252.75813 173.29031c0 31.60411 55.086624 47.40901 110.17323 63.20822c55.08661 15.799225 110.17322 31.592743 110.17322 63.185486" fill-rule="evenodd"/><path stroke="#eb516c" stroke-width="2.1784776902887137" stroke-linejoin="round" stroke-linecap="butt" d="m252.75813 173.29031c0 31.60411 55.086624 47.40901 110.17323 63.20822c55.08661 15.799225 110.17322 31.592743 110.17322 63.185486" fill-rule="evenodd"/><path fill="#000000" fill-opacity="0.0" d="m252.75813 173.29031c0 31.60411 67.779526 47.40901 135.55904 63.20822c67.77954 15.799225 135.55905 31.592743 135.55905 63.185486" fill-rule="evenodd"/><path stroke="#eb516c" stroke-width="2.1784776902887137" stroke-linejoin="round" stroke-linecap="butt" d="m252.75813 173.29031c0 31.60411 67.779526 47.40901 135.55904 63.20822c67.77954 15.799225 135.55905 31.592743 135.55905 63.185486" fill-rule="evenodd"/><path fill="#ffffff" d="m272.24127 469.632l0 0c0 -6.4561157 5.2337036 -11.689819 11.689819 -11.689819l46.757843 0l0 0c3.1003418 0 6.0736694 1.2315979 8.26593 3.4238892c2.1922913 2.1922607 3.4238892 5.1655884 3.4238892 8.26593l0 46.757843c0 6.4561157 -5.2337036 11.689819 -11.689819 11.689819l-46.757843 0c-6.4561157 0 -11.689819 -5.2337036 -11.689819 -11.689819z" fill-rule="evenodd"/><path stroke="#eb516c" stroke-width="2.1784776902887137" stroke-linejoin="round" stroke-linecap="butt" d="m272.24127 469.632l0 0c0 -6.4561157 5.2337036 -11.689819 11.689819 -11.689819l46.757843 0l0 0c3.1003418 0 6.0736694 1.2315979 8.26593 3.4238892c2.1922913 2.1922607 3.4238892 5.1655884 3.4238892 8.26593l0 46.757843c0 6.4561157 -5.2337036 11.689819 -11.689819 11.689819l-46.757843 0c-6.4561157 0 -11.689819 -5.2337036 -11.689819 -11.689819z" fill-rule="evenodd"/><path fill="#01358d" d="m295.95123 493.58713q-2.453125 0 -4.6875 -0.640625q-2.234375 -0.65625 -3.59375 -1.703125l1.59375 -3.546875q1.3125 0.9375 3.09375 1.53125q1.78125 0.59375 3.609375 0.59375q1.40625 0 2.25 -0.28125q0.859375 -0.28125 1.265625 -0.765625q0.40625 -0.5 0.40625 -1.140625q0 -0.8125 -0.640625 -1.28125q-0.640625 -0.484375 -1.6875 -0.78125q-1.03125 -0.3125 -2.296875 -0.578125q-1.265625 -0.28125 -2.53125 -0.6875q-1.265625 -0.40625 -2.3125 -1.046875q-1.03125 -0.640625 -1.6875 -1.6875q-0.65625 -1.046875 -0.65625 -2.671875q0 -1.734375 0.9375 -3.171875q0.953125 -1.4375 2.84375 -2.296875q1.90625 -0.859375 4.78125 -0.859375q1.921875 0 3.78125 0.453125q1.859375 0.453125 3.28125 1.34375l-1.453125 3.578125q-1.421875 -0.8125 -2.84375 -1.203125q-1.421875 -0.390625 -2.796875 -0.390625q-1.359375 0 -2.234375 0.328125q-0.875 0.3125 -1.25 0.828125q-0.375 0.5 -0.375 1.15625q0 0.78125 0.640625 1.265625q0.640625 0.484375 1.6875 0.78125q1.046875 0.28125 2.296875 0.578125q1.265625 0.28125 2.53125 0.65625q1.265625 0.375 2.3125 1.015625q1.046875 0.640625 1.6875 1.6875q0.65625 1.046875 0.65625 2.640625q0 1.71875 -0.953125 3.140625q-0.953125 1.421875 -2.859375 2.296875q-1.90625 0.859375 -4.796875 0.859375zm21.646942 0q-2.40625 0 -4.421875 -0.765625q-2.015625 -0.765625 -3.515625 -2.1875q-1.5 -1.421875 -2.328125 -3.34375q-0.828125 -1.921875 -0.828125 -4.203125q0 -2.296875 0.828125 -4.203125q0.828125 -1.921875 2.34375 -3.34375q1.515625 -1.421875 3.546875 -2.1875q2.03125 -0.78125 4.46875 -0.78125q2.703125 0 4.859375 0.90625q2.15625 0.890625 3.640625 2.609375l-3.015625 2.78125q-1.109375 -1.15625 -2.421875 -1.71875q-1.296875 -0.5625 -2.828125 -0.5625q-1.484375 0 -2.703125 0.46875q-1.21875 0.453125 -2.109375 1.328125q-0.890625 0.859375 -1.375 2.0625q-0.46875 1.1875 -0.46875 2.640625q0 1.421875 0.46875 2.609375q0.484375 1.1875 1.375 2.078125q0.890625 0.875 2.09375 1.34375q1.203125 0.46875 2.65625 0.46875q1.390625 0 2.703125 -0.453125q1.328125 -0.453125 2.578125 -1.515625l2.671875 3.390625q-1.65625 1.25 -3.84375 1.921875q-2.1875 0.65625 -4.375 0.65625zm8.21875 -2.578125l-4.296875 -0.609375l0 -7.640625l4.296875 0l0 8.25z" fill-rule="nonzero"/><path fill="#f8546c" d="m303.50287 507.14767l-12.8471985 0l0 -4.22171l-8.443359 8.44339l8.443359 8.44339l0 -4.2216797l12.8471985 0z" fill-rule="evenodd"/><path fill="#01358d" d="m311.1171 515.1838l12.8471985 0l0 4.2216797l8.44339 -8.443359l-8.44339 -8.44339l0 4.22171l-12.8471985 0z" fill-rule="evenodd"/><path fill="#ffffff" d="m369.7275 469.632l0 0c0 -6.4561157 5.233734 -11.689819 11.689819 -11.689819l46.757843 0l0 0c3.1003418 0 6.0737 1.2315979 8.265961 3.4238892c2.1922607 2.1922607 3.4238586 5.1655884 3.4238586 8.26593l0 46.757843c0 6.4561157 -5.2337036 11.689819 -11.689819 11.689819l-46.757843 0c-6.456085 0 -11.689819 -5.2337036 -11.689819 -11.689819z" fill-rule="evenodd"/><path stroke="#eb516c" stroke-width="2.1784776902887137" stroke-linejoin="round" stroke-linecap="butt" d="m369.7275 469.632l0 0c0 -6.4561157 5.233734 -11.689819 11.689819 -11.689819l46.757843 0l0 0c3.1003418 0 6.0737 1.2315979 8.265961 3.4238892c2.1922607 2.1922607 3.4238586 5.1655884 3.4238586 8.26593l0 46.757843c0 6.4561157 -5.2337036 11.689819 -11.689819 11.689819l-46.757843 0c-6.456085 0 -11.689819 -5.2337036 -11.689819 -11.689819z" fill-rule="evenodd"/><path fill="#01358d" d="m393.43747 493.58713q-2.453125 0 -4.6875 -0.640625q-2.234375 -0.65625 -3.59375 -1.703125l1.59375 -3.546875q1.3125 0.9375 3.09375 1.53125q1.78125 0.59375 3.609375 0.59375q1.40625 0 2.25 -0.28125q0.859375 -0.28125 1.265625 -0.765625q0.40625 -0.5 0.40625 -1.140625q0 -0.8125 -0.640625 -1.28125q-0.640625 -0.484375 -1.6875 -0.78125q-1.03125 -0.3125 -2.296875 -0.578125q-1.265625 -0.28125 -2.53125 -0.6875q-1.265625 -0.40625 -2.3125 -1.046875q-1.03125 -0.640625 -1.6875 -1.6875q-0.65625 -1.046875 -0.65625 -2.671875q0 -1.734375 0.9375 -3.171875q0.953125 -1.4375 2.84375 -2.296875q1.90625 -0.859375 4.78125 -0.859375q1.921875 0 3.78125 0.453125q1.859375 0.453125 3.28125 1.34375l-1.453125 3.578125q-1.421875 -0.8125 -2.84375 -1.203125q-1.421875 -0.390625 -2.796875 -0.390625q-1.359375 0 -2.234375 0.328125q-0.875 0.3125 -1.25 0.828125q-0.375 0.5 -0.375 1.15625q0 0.78125 0.640625 1.265625q0.640625 0.484375 1.6875 0.78125q1.046875 0.28125 2.296875 0.578125q1.265625 0.28125 2.53125 0.65625q1.265625 0.375 2.3125 1.015625q1.046875 0.640625 1.6875 1.6875q0.65625 1.046875 0.65625 2.640625q0 1.71875 -0.953125 3.140625q-0.953125 1.421875 -2.859375 2.296875q-1.90625 0.859375 -4.796875 0.859375zm21.646942 0q-2.40625 0 -4.421875 -0.765625q-2.015625 -0.765625 -3.515625 -2.1875q-1.5 -1.421875 -2.328125 -3.34375q-0.828125 -1.921875 -0.828125 -4.203125q0 -2.296875 0.828125 -4.203125q0.828125 -1.921875 2.34375 -3.34375q1.515625 -1.421875 3.546875 -2.1875q2.03125 -0.78125 4.46875 -0.78125q2.703125 0 4.859375 0.90625q2.15625 0.890625 3.640625 2.609375l-3.015625 2.78125q-1.109375 -1.15625 -2.421875 -1.71875q-1.296875 -0.5625 -2.828125 -0.5625q-1.484375 0 -2.703125 0.46875q-1.21875 0.453125 -2.109375 1.328125q-0.890625 0.859375 -1.375 2.0625q-0.46875 1.1875 -0.46875 2.640625q0 1.421875 0.46875 2.609375q0.484375 1.1875 1.375 2.078125q0.890625 0.875 2.09375 1.34375q1.203125 0.46875 2.65625 0.46875q1.390625 0 2.703125 -0.453125q1.328125 -0.453125 2.578125 -1.515625l2.671875 3.390625q-1.65625 1.25 -3.84375 1.921875q-2.1875 0.65625 -4.375 0.65625zm8.21875 -2.578125l-4.296875 -0.609375l0 -7.640625l4.296875 0l0 8.25z" fill-rule="nonzero"/><path fill="#f8546c" d="m400.98914 507.14767l-12.8471985 0l0 -4.22171l-8.44339 8.44339l8.44339 8.44339l0 -4.2216797l12.8471985 0z" fill-rule="evenodd"/><path fill="#01358d" d="m408.60333 515.1838l12.8471985 0l0 4.2216797l8.44339 -8.443359l-8.44339 -8.44339l0 4.22171l-12.8471985 0z" fill-rule="evenodd"/><path fill="#000000" fill-opacity="0.0" d="m404.79626 457.94217c0 -31.586761 17.070862 -47.378235 34.141724 -63.173523c17.070862 -15.795258 34.141724 -31.59433 34.141724 -63.18866" fill-rule="evenodd"/><path stroke="#eb516c" stroke-width="2.1784776902887137" stroke-linejoin="round" stroke-linecap="butt" d="m404.79626 457.94217c0 -31.586761 17.070862 -47.378235 34.141724 -63.173523c17.070862 -15.795258 34.141724 -31.59433 34.141724 -63.18866" fill-rule="evenodd"/><path fill="#000000" fill-opacity="0.0" d="m307.31 457.94217c0 -31.586761 41.448822 -47.378235 82.897644 -63.173523c41.448822 -15.795258 82.897644 -31.59433 82.897644 -63.18866" fill-rule="evenodd"/><path stroke="#eb516c" stroke-width="2.1784776902887137" stroke-linejoin="round" stroke-linecap="butt" d="m307.31 457.94217c0 -31.586761 41.448822 -47.378235 82.897644 -63.173523c41.448822 -15.795258 82.897644 -31.59433 82.897644 -63.18866" fill-rule="evenodd"/><path fill="#000000" fill-opacity="0.0" d="m307.31 457.94217c0 -71.17389 -13.637787 -106.76511 -27.275574 -142.34778c-13.637787 -35.582672 -27.275589 -71.156815 -27.275589 -142.31363" fill-rule="evenodd"/><path stroke="#01358d" stroke-width="2.1784776902887137" stroke-linejoin="round" stroke-linecap="butt" d="m307.31 457.94217c0 -71.17389 -13.637787 -106.76511 -27.275574 -142.34778c-13.637787 -35.582672 -27.275589 -71.156815 -27.275589 -142.31363" fill-rule="evenodd"/><path fill="#000000" fill-opacity="0.0" d="m209.82376 457.94217c0 -71.17389 10.732285 -106.76511 21.46457 -142.34778c10.732285 -35.582672 21.46457 -71.156815 21.46457 -142.31363" fill-rule="evenodd"/><path stroke="#01358d" stroke-width="2.1784776902887137" stroke-linejoin="round" stroke-linecap="butt" d="m209.82376 457.94217c0 -71.17389 10.732285 -106.76511 21.46457 -142.34778c10.732285 -35.582672 21.46457 -71.156815 21.46457 -142.31363" fill-rule="evenodd"/><path fill="#000000" fill-opacity="0.0" d="m404.79626 457.94217c0 -71.17389 -38.007874 -106.76511 -76.01575 -142.34778c-38.007874 -35.582672 -76.01576 -71.156815 -76.01576 -142.31363" fill-rule="evenodd"/><path stroke="#01358d" stroke-width="2.1784776902887137" stroke-linejoin="round" stroke-linecap="butt" d="m404.79626 457.94217c0 -71.17389 -38.007874 -106.76511 -76.01575 -142.34778c-38.007874 -35.582672 -76.01576 -71.156815 -76.01576 -142.31363" fill-rule="evenodd"/><path fill="#000000" fill-opacity="0.0" d="m112.337524 457.94217c0 -71.17389 35.102356 -106.76511 70.20473 -142.34778c35.102356 -35.582672 70.20471 -71.156815 70.20471 -142.31363" fill-rule="evenodd"/><path stroke="#01358d" stroke-width="2.1784776902887137" stroke-linejoin="round" stroke-linecap="butt" d="m112.337524 457.94217c0 -71.17389 35.102356 -106.76511 70.20473 -142.34778c35.102356 -35.582672 70.20471 -71.156815 70.20471 -142.31363" fill-rule="evenodd"/><path fill="#000000" fill-opacity="0.0" d="m209.82376 457.94217c0 -31.586761 78.51181 -47.378235 157.02362 -63.173523c78.51181 -15.795258 157.02365 -31.59433 157.02365 -63.18866" fill-rule="evenodd"/><path stroke="#eb516c" stroke-width="2.1784776902887137" stroke-linejoin="round" stroke-linecap="butt" d="m209.82376 457.94217c0 -31.586761 78.51181 -47.378235 157.02362 -63.173523c78.51181 -15.795258 157.02365 -31.59433 157.02365 -63.18866" fill-rule="evenodd"/><path fill="#000000" fill-opacity="0.0" d="m112.337524 457.94217c0 -31.586761 102.889755 -47.378235 205.77951 -63.173523c102.88977 -15.795258 205.77951 -31.59433 205.77951 -63.18866" fill-rule="evenodd"/><path stroke="#eb516c" stroke-width="2.1784776902887137" stroke-linejoin="round" stroke-linecap="butt" d="m112.337524 457.94217c0 -31.586761 102.889755 -47.378235 205.77951 -63.173523c102.88977 -15.795258 205.77951 -31.59433 205.77951 -63.18866" fill-rule="evenodd"/><path fill="#000000" fill-opacity="0.0" d="m404.79626 457.94217c0 -31.586761 29.771637 -47.378235 59.543304 -63.173523c29.771637 -15.795258 59.543304 -31.59433 59.543304 -63.18866" fill-rule="evenodd"/><path stroke="#eb516c" stroke-width="2.1784776902887137" stroke-linejoin="round" stroke-linecap="butt" d="m404.79626 457.94217c0 -31.586761 29.771637 -47.378235 59.543304 -63.173523c29.771637 -15.795258 59.543304 -31.59433 59.543304 -63.18866" fill-rule="evenodd"/><path fill="#000000" fill-opacity="0.0" d="m307.31 457.94217c0 -31.586761 54.141754 -47.378235 108.28348 -63.173523c54.141724 -15.795258 108.28348 -31.59433 108.28348 -63.18866" fill-rule="evenodd"/><path stroke="#eb516c" stroke-width="2.1784776902887137" stroke-linejoin="round" stroke-linecap="butt" d="m307.31 457.94217c0 -31.586761 54.141754 -47.378235 108.28348 -63.173523c54.141724 -15.795258 108.28348 -31.59433 108.28348 -63.18866" fill-rule="evenodd"/><path fill="#000000" fill-opacity="0.0" d="m658.40656 171.7299c43.41736 0 65.12598 0.03149414 86.834656 0.06298828c21.70868 0.03149414 43.41736 0.06298828 86.834656 0.06298828" fill-rule="evenodd"/><path stroke="#eb516c" stroke-width="2.1784776902887137" stroke-linejoin="round" stroke-linecap="butt" d="m658.40656 171.7299c43.41736 0 65.12598 0.03149414 86.834656 0.06298828c21.70868 0.03149414 43.41736 0.06298828 86.834656 0.06298828" fill-rule="evenodd"/><path fill="#000000" fill-opacity="0.0" d="m834.3551 240.2801c-43.984253 0 -65.97638 0.03149414 -87.968506 0.06298828c-21.992126 0.03149414 -43.984253 0.06298828 -87.968506 0.06298828" fill-rule="evenodd"/><path stroke="#01358d" stroke-width="2.1784776902887137" stroke-linejoin="round" stroke-linecap="butt" d="m834.3551 240.2801c-43.984253 0 -65.97638 0.03149414 -87.968506 0.06298828c-21.992126 0.03149414 -43.984253 0.06298828 -87.968506 0.06298828" fill-rule="evenodd"/><path fill="#000000" fill-opacity="0.0" d="m658.40656 151.53984l175.93701 0l0 70.39369l-175.93701 0z" fill-rule="evenodd"/><path fill="#ffffff" d="m680.2034 193.84178l0 -16.625l6.265625 0q1.65625 0 2.53125 0.15625q1.21875 0.21875 2.046875 0.796875q0.828125 0.5625 1.328125 1.59375q0.515625 1.03125 0.515625 2.265625q0 2.125 -1.359375 3.59375q-1.34375 1.46875 -4.875 1.46875l-4.265625 0l0 6.75l-2.1875 0zm2.1875 -8.71875l4.296875 0q2.140625 0 3.03125 -0.796875q0.890625 -0.796875 0.890625 -2.234375q0 -1.03125 -0.53125 -1.78125q-0.515625 -0.75 -1.375 -0.984375q-0.5625 -0.140625 -2.046875 -0.140625l-4.265625 0l0 5.9375zm13.03363 8.71875l0 -16.625l2.046875 0l0 5.96875q1.421875 -1.65625 3.59375 -1.65625q1.34375 0 2.328125 0.53125q0.984375 0.515625 1.40625 1.453125q0.4375 0.921875 0.4375 2.703125l0 7.625l-2.046875 0l0 -7.625q0 -1.53125 -0.671875 -2.234375q-0.65625 -0.703125 -1.875 -0.703125q-0.90625 0 -1.703125 0.484375q-0.796875 0.46875 -1.140625 1.28125q-0.328125 0.796875 -0.328125 2.203125l0 6.59375l-2.046875 0zm12.819397 4.640625l-0.21875 -1.921875q0.65625 0.1875 1.15625 0.1875q0.6875 0 1.09375 -0.234375q0.40625 -0.21875 0.671875 -0.625q0.1875 -0.3125 0.625 -1.53125q0.046875 -0.171875 0.171875 -0.5l-4.5625 -12.0625l2.203125 0l2.5 6.984375q0.484375 1.328125 0.875 2.78125q0.34375 -1.40625 0.84375 -2.734375l2.5625 -7.03125l2.046875 0l-4.578125 12.25q-0.734375 1.984375 -1.140625 2.734375q-0.546875 1.015625 -1.25 1.484375q-0.703125 0.46875 -1.6875 0.46875q-0.578125 0 -1.3125 -0.25zm10.890625 -8.234375l2.015625 -0.3125q0.171875 1.203125 0.9375 1.859375q0.78125 0.640625 2.171875 0.640625q1.40625 0 2.078125 -0.5625q0.6875 -0.578125 0.6875 -1.359375q0 -0.6875 -0.59375 -1.078125q-0.421875 -0.28125 -2.09375 -0.703125q-2.234375 -0.5625 -3.109375 -0.96875q-0.859375 -0.421875 -1.3125 -1.140625q-0.453125 -0.734375 -0.453125 -1.625q0 -0.796875 0.375 -1.484375q0.375 -0.6875 1.0 -1.140625q0.484375 -0.359375 1.296875 -0.59375q0.828125 -0.25 1.765625 -0.25q1.421875 0 2.484375 0.40625q1.078125 0.40625 1.578125 1.109375q0.515625 0.703125 0.71875 1.859375l-2.0 0.28125q-0.140625 -0.9375 -0.796875 -1.453125q-0.640625 -0.53125 -1.828125 -0.53125q-1.40625 0 -2.015625 0.46875q-0.59375 0.46875 -0.59375 1.09375q0 0.390625 0.25 0.71875q0.25 0.328125 0.78125 0.53125q0.296875 0.125 1.796875 0.53125q2.171875 0.578125 3.015625 0.953125q0.859375 0.359375 1.34375 1.0625q0.5 0.703125 0.5 1.75q0 1.015625 -0.609375 1.921875q-0.59375 0.890625 -1.71875 1.390625q-1.109375 0.484375 -2.53125 0.484375q-2.34375 0 -3.578125 -0.96875q-1.234375 -0.96875 -1.5625 -2.890625zm12.4375 -10.6875l0 -2.34375l2.03125 0l0 2.34375l-2.03125 0zm0 14.28125l0 -12.046875l2.03125 0l0 12.046875l-2.03125 0zm13.002197 -4.40625l2.0 0.25q-0.328125 2.078125 -1.6875 3.25q-1.34375 1.171875 -3.3125 1.171875q-2.484375 0 -3.984375 -1.609375q-1.5 -1.609375 -1.5 -4.625q0 -1.953125 0.640625 -3.40625q0.65625 -1.46875 1.96875 -2.203125q1.328125 -0.734375 2.875 -0.734375q1.96875 0 3.203125 1.0q1.25 0.984375 1.609375 2.8125l-1.984375 0.296875q-0.28125 -1.203125 -1.0 -1.8125q-0.71875 -0.625 -1.75 -0.625q-1.53125 0 -2.5 1.109375q-0.96875 1.109375 -0.96875 3.5q0 2.421875 0.921875 3.53125q0.9375 1.09375 2.4375 1.09375q1.203125 0 2.0 -0.734375q0.8125 -0.734375 1.03125 -2.265625zm11.609375 2.921875q-1.140625 0.96875 -2.1875 1.359375q-1.046875 0.390625 -2.25 0.390625q-1.984375 0 -3.046875 -0.96875q-1.0625 -0.96875 -1.0625 -2.46875q0 -0.890625 0.390625 -1.609375q0.40625 -0.734375 1.0625 -1.171875q0.65625 -0.453125 1.46875 -0.671875q0.59375 -0.171875 1.8125 -0.3125q2.46875 -0.296875 3.640625 -0.703125q0.015625 -0.421875 0.015625 -0.53125q0 -1.25 -0.578125 -1.765625q-0.78125 -0.6875 -2.328125 -0.6875q-1.4375 0 -2.125 0.515625q-0.6875 0.5 -1.015625 1.78125l-2.0 -0.28125q0.28125 -1.28125 0.890625 -2.0625q0.625 -0.796875 1.796875 -1.21875q1.1875 -0.421875 2.75 -0.421875q1.53125 0 2.5 0.359375q0.96875 0.359375 1.421875 0.921875q0.453125 0.546875 0.625 1.390625q0.109375 0.515625 0.109375 1.875l0 2.71875q0 2.84375 0.125 3.609375q0.140625 0.75 0.515625 1.4375l-2.125 0q-0.3125 -0.640625 -0.40625 -1.484375zm-0.171875 -4.5625q-1.109375 0.453125 -3.328125 0.78125q-1.265625 0.171875 -1.796875 0.40625q-0.515625 0.21875 -0.796875 0.65625q-0.28125 0.4375 -0.28125 0.96875q0 0.8125 0.609375 1.359375q0.625 0.546875 1.8125 0.546875q1.1875 0 2.09375 -0.515625q0.921875 -0.515625 1.359375 -1.40625q0.328125 -0.703125 0.328125 -2.046875l0 -0.75zm5.178833 6.046875l0 -16.625l2.046875 0l0 16.625l-2.046875 0zm11.609375 0l0 -16.625l2.046875 0l0 16.625l-2.046875 0zm5.2209473 -14.28125l0 -2.34375l2.03125 0l0 2.34375l-2.03125 0zm0 14.28125l0 -12.046875l2.03125 0l0 12.046875l-2.03125 0zm5.1428223 0l0 -12.046875l1.828125 0l0 1.71875q1.328125 -1.984375 3.84375 -1.984375q1.078125 0 1.984375 0.390625q0.921875 0.390625 1.375 1.03125q0.453125 0.625 0.640625 1.5q0.109375 0.5625 0.109375 1.984375l0 7.40625l-2.03125 0l0 -7.328125q0 -1.25 -0.25 -1.859375q-0.234375 -0.625 -0.84375 -0.984375q-0.609375 -0.375 -1.421875 -0.375q-1.296875 0 -2.25 0.828125q-0.9375 0.828125 -0.9375 3.140625l0 6.578125l-2.046875 0zm12.928772 0l0 -16.625l2.03125 0l0 9.484375l4.828125 -4.90625l2.640625 0l-4.59375 4.46875l5.0625 7.578125l-2.515625 0l-3.984375 -6.15625l-1.4375 1.390625l0 4.765625l-2.03125 0z" fill-rule="nonzero"/><path fill="#000000" fill-opacity="0.0" d="m620.8446 229.29904l297.51178 0l0 70.39371l-297.51178 0z" fill-rule="evenodd"/><path fill="#ffffff" d="m642.5477 271.60098l0 -16.625l2.203125 0l0 14.65625l8.171875 0l0 1.96875l-10.375 0zm11.975647 -6.015625q0 -3.34375 1.859375 -4.953125q1.5625 -1.34375 3.796875 -1.34375q2.484375 0 4.046875 1.625q1.578125 1.625 1.578125 4.5q0 2.328125 -0.703125 3.65625q-0.6875 1.328125 -2.015625 2.0625q-1.328125 0.734375 -2.90625 0.734375q-2.53125 0 -4.09375 -1.609375q-1.5625 -1.625 -1.5625 -4.671875zm2.109375 0q0 2.3125 1.0 3.46875q1.015625 1.140625 2.546875 1.140625q1.515625 0 2.515625 -1.15625q1.015625 -1.15625 1.015625 -3.53125q0 -2.234375 -1.015625 -3.375q-1.015625 -1.15625 -2.515625 -1.15625q-1.53125 0 -2.546875 1.15625q-1.0 1.140625 -1.0 3.453125zm11.194397 7.015625l1.984375 0.296875q0.125 0.90625 0.6875 1.328125q0.765625 0.578125 2.078125 0.578125q1.421875 0 2.1875 -0.578125q0.765625 -0.5625 1.046875 -1.578125q0.15625 -0.625 0.140625 -2.625q-1.328125 1.578125 -3.328125 1.578125q-2.484375 0 -3.84375 -1.78125q-1.359375 -1.796875 -1.359375 -4.3125q0 -1.71875 0.625 -3.171875q0.625 -1.453125 1.796875 -2.25q1.1875 -0.796875 2.796875 -0.796875q2.125 0 3.515625 1.71875l0 -1.453125l1.875 0l0 10.421875q0 2.796875 -0.578125 3.96875q-0.5625 1.1875 -1.8125 1.859375q-1.234375 0.6875 -3.046875 0.6875q-2.15625 0 -3.484375 -0.96875q-1.328125 -0.96875 -1.28125 -2.921875zm1.6875 -7.234375q0 2.375 0.9375 3.46875q0.953125 1.078125 2.359375 1.078125q1.40625 0 2.359375 -1.078125q0.953125 -1.09375 0.953125 -3.40625q0 -2.203125 -0.984375 -3.328125q-0.96875 -1.125 -2.359375 -1.125q-1.359375 0 -2.3125 1.109375q-0.953125 1.109375 -0.953125 3.28125zm11.616272 -8.046875l0 -2.34375l2.03125 0l0 2.34375l-2.03125 0zm0 14.28125l0 -12.046875l2.03125 0l0 12.046875l-2.03125 0zm13.002258 -4.40625l2.0 0.25q-0.328125 2.078125 -1.6875 3.25q-1.34375 1.171875 -3.3125 1.171875q-2.484375 0 -3.984375 -1.609375q-1.5 -1.609375 -1.5 -4.625q0 -1.953125 0.640625 -3.40625q0.65625 -1.46875 1.96875 -2.203125q1.328125 -0.734375 2.875 -0.734375q1.96875 0 3.203125 1.0q1.25 0.984375 1.609375 2.8125l-1.984375 0.296875q-0.28125 -1.203125 -1.0 -1.8125q-0.71875 -0.625 -1.75 -0.625q-1.53125 0 -2.5 1.109375q-0.96875 1.109375 -0.96875 3.5q0 2.421875 0.921875 3.53125q0.9375 1.09375 2.4375 1.09375q1.203125 0 2.0 -0.734375q0.8125 -0.734375 1.03125 -2.265625zm11.609375 2.921875q-1.140625 0.96875 -2.1875 1.359375q-1.046875 0.390625 -2.25 0.390625q-1.984375 0 -3.046875 -0.96875q-1.0625 -0.96875 -1.0625 -2.46875q0 -0.890625 0.390625 -1.609375q0.40625 -0.734375 1.0625 -1.171875q0.65625 -0.453125 1.46875 -0.671875q0.59375 -0.171875 1.8125 -0.3125q2.46875 -0.296875 3.640625 -0.703125q0.015625 -0.421875 0.015625 -0.53125q0 -1.25 -0.578125 -1.765625q-0.78125 -0.6875 -2.328125 -0.6875q-1.4375 0 -2.125 0.515625q-0.6875 0.5 -1.015625 1.78125l-2.0 -0.28125q0.28125 -1.28125 0.890625 -2.0625q0.625 -0.796875 1.796875 -1.21875q1.1875 -0.421875 2.75 -0.421875q1.53125 0 2.5 0.359375q0.96875 0.359375 1.421875 0.921875q0.453125 0.546875 0.625 1.390625q0.109375 0.515625 0.109375 1.875l0 2.71875q0 2.84375 0.125 3.609375q0.140625 0.75 0.515625 1.4375l-2.125 0q-0.3125 -0.640625 -0.40625 -1.484375zm-0.171875 -4.5625q-1.109375 0.453125 -3.328125 0.78125q-1.265625 0.171875 -1.796875 0.40625q-0.515625 0.21875 -0.796875 0.65625q-0.28125 0.4375 -0.28125 0.96875q0 0.8125 0.609375 1.359375q0.625 0.546875 1.8125 0.546875q1.1875 0 2.09375 -0.515625q0.921875 -0.515625 1.359375 -1.40625q0.328125 -0.703125 0.328125 -2.046875l0 -0.75zm5.178772 6.046875l0 -16.625l2.046875 0l0 16.625l-2.046875 0zm11.828125 0l0 -16.625l6.234375 0q1.90625 0 3.046875 0.515625q1.15625 0.5 1.8125 1.546875q0.65625 1.046875 0.65625 2.1875q0 1.078125 -0.578125 2.015625q-0.578125 0.9375 -1.75 1.515625q1.5 0.4375 2.3125 1.515625q0.8125 1.0625 0.8125 2.515625q0 1.15625 -0.5 2.171875q-0.484375 1.0 -1.21875 1.546875q-0.71875 0.53125 -1.8125 0.8125q-1.09375 0.28125 -2.6875 0.28125l-6.328125 0zm2.203125 -9.640625l3.59375 0q1.453125 0 2.09375 -0.1875q0.84375 -0.25 1.265625 -0.828125q0.421875 -0.578125 0.421875 -1.453125q0 -0.828125 -0.40625 -1.453125q-0.390625 -0.625 -1.125 -0.859375q-0.734375 -0.234375 -2.53125 -0.234375l-3.3125 0l0 5.015625zm0 7.671875l4.125 0q1.078125 0 1.5 -0.078125q0.765625 -0.125 1.265625 -0.4375q0.515625 -0.328125 0.84375 -0.9375q0.328125 -0.609375 0.328125 -1.390625q0 -0.9375 -0.484375 -1.625q-0.46875 -0.6875 -1.3125 -0.953125q-0.84375 -0.28125 -2.421875 -0.28125l-3.84375 0l0 5.703125zm21.142944 -4.546875l0 -1.953125l7.046875 -0.015625l0 6.171875q-1.625 1.296875 -3.34375 1.953125q-1.71875 0.640625 -3.53125 0.640625q-2.453125 0 -4.453125 -1.046875q-2.0 -1.046875 -3.03125 -3.03125q-1.015625 -1.984375 -1.015625 -4.4375q0 -2.421875 1.015625 -4.515625q1.015625 -2.109375 2.921875 -3.125q1.90625 -1.03125 4.390625 -1.03125q1.796875 0 3.25 0.59375q1.46875 0.578125 2.28125 1.625q0.828125 1.03125 1.265625 2.71875l-1.984375 0.546875q-0.375 -1.28125 -0.9375 -2.0q-0.546875 -0.734375 -1.578125 -1.15625q-1.03125 -0.4375 -2.296875 -0.4375q-1.5 0 -2.609375 0.453125q-1.09375 0.453125 -1.765625 1.203125q-0.671875 0.75 -1.046875 1.640625q-0.640625 1.546875 -0.640625 3.359375q0 2.21875 0.765625 3.71875q0.765625 1.484375 2.21875 2.21875q1.46875 0.71875 3.125 0.71875q1.421875 0 2.78125 -0.546875q1.359375 -0.546875 2.0625 -1.171875l0 -3.09375l-4.890625 0zm10.294678 6.515625l0 -16.625l6.265625 0q1.65625 0 2.53125 0.15625q1.21875 0.21875 2.046875 0.796875q0.828125 0.5625 1.328125 1.59375q0.515625 1.03125 0.515625 2.265625q0 2.125 -1.359375 3.59375q-1.34375 1.46875 -4.875 1.46875l-4.265625 0l0 6.75l-2.1875 0zm2.1875 -8.71875l4.296875 0q2.140625 0 3.03125 -0.796875q0.890625 -0.796875 0.890625 -2.234375q0 -1.03125 -0.53125 -1.78125q-0.515625 -0.75 -1.375 -0.984375q-0.5625 -0.140625 -2.046875 -0.140625l-4.265625 0l0 5.9375zm26.924194 4.3125l2.0 0.25q-0.328125 2.078125 -1.6875 3.25q-1.34375 1.171875 -3.3125 1.171875q-2.484375 0 -3.984375 -1.609375q-1.5 -1.609375 -1.5 -4.625q0 -1.953125 0.640625 -3.40625q0.65625 -1.46875 1.96875 -2.203125q1.328125 -0.734375 2.875 -0.734375q1.96875 0 3.203125 1.0q1.25 0.984375 1.609375 2.8125l-1.984375 0.296875q-0.28125 -1.203125 -1.0 -1.8125q-0.71875 -0.625 -1.75 -0.625q-1.53125 0 -2.5 1.109375q-0.96875 1.109375 -0.96875 3.5q0 2.421875 0.921875 3.53125q0.9375 1.09375 2.4375 1.09375q1.203125 0 2.0 -0.734375q0.8125 -0.734375 1.03125 -2.265625zm2.984375 -1.609375q0 -3.34375 1.859375 -4.953125q1.5625 -1.34375 3.796875 -1.34375q2.484375 0 4.046875 1.625q1.578125 1.625 1.578125 4.5q0 2.328125 -0.703125 3.65625q-0.6875 1.328125 -2.015625 2.0625q-1.328125 0.734375 -2.90625 0.734375q-2.53125 0 -4.09375 -1.609375q-1.5625 -1.625 -1.5625 -4.671875zm2.109375 0q0 2.3125 1.0 3.46875q1.015625 1.140625 2.546875 1.140625q1.515625 0 2.515625 -1.15625q1.015625 -1.15625 1.015625 -3.53125q0 -2.234375 -1.015625 -3.375q-1.015625 -1.15625 -2.515625 -1.15625q-1.53125 0 -2.546875 1.15625q-1.0 1.140625 -1.0 3.453125zm11.569397 6.015625l0 -12.046875l1.828125 0l0 1.71875q1.328125 -1.984375 3.84375 -1.984375q1.078125 0 1.984375 0.390625q0.921875 0.390625 1.375 1.03125q0.453125 0.625 0.640625 1.5q0.109375 0.5625 0.109375 1.984375l0 7.40625l-2.03125 0l0 -7.328125q0 -1.25 -0.25 -1.859375q-0.234375 -0.625 -0.84375 -0.984375q-0.609375 -0.375 -1.421875 -0.375q-1.296875 0 -2.25 0.828125q-0.9375 0.828125 -0.9375 3.140625l0 6.578125l-2.046875 0zm12.913147 0l0 -12.046875l1.828125 0l0 1.71875q1.328125 -1.984375 3.84375 -1.984375q1.078125 0 1.984375 0.390625q0.921875 0.390625 1.375 1.03125q0.453125 0.625 0.640625 1.5q0.109375 0.5625 0.109375 1.984375l0 7.40625l-2.03125 0l0 -7.328125q0 -1.25 -0.25 -1.859375q-0.234375 -0.625 -0.84375 -0.984375q-0.609375 -0.375 -1.421875 -0.375q-1.296875 0 -2.25 0.828125q-0.9375 0.828125 -0.9375 3.140625l0 6.578125l-2.046875 0zm21.147583 -3.875l2.109375 0.265625q-0.5 1.84375 -1.84375 2.859375q-1.34375 1.015625 -3.4375 1.015625q-2.640625 0 -4.203125 -1.625q-1.546875 -1.625 -1.546875 -4.5625q0 -3.03125 1.5625 -4.703125q1.578125 -1.6875 4.0625 -1.6875q2.421875 0 3.953125 1.640625q1.53125 1.640625 1.53125 4.625q0 0.1875 -0.015625 0.546875l-8.984375 0q0.125 1.984375 1.125 3.046875q1.015625 1.046875 2.515625 1.046875q1.125 0 1.921875 -0.578125q0.796875 -0.59375 1.25 -1.890625zm-6.6875 -3.296875l6.71875 0q-0.140625 -1.53125 -0.765625 -2.28125q-0.984375 -1.1875 -2.53125 -1.1875q-1.40625 0 -2.375 0.953125q-0.953125 0.9375 -1.046875 2.515625zm19.225647 2.765625l2.0 0.25q-0.328125 2.078125 -1.6875 3.25q-1.34375 1.171875 -3.3125 1.171875q-2.484375 0 -3.984375 -1.609375q-1.5 -1.609375 -1.5 -4.625q0 -1.953125 0.640625 -3.40625q0.65625 -1.46875 1.96875 -2.203125q1.328125 -0.734375 2.875 -0.734375q1.96875 0 3.203125 1.0q1.25 0.984375 1.609375 2.8125l-1.984375 0.296875q-0.28125 -1.203125 -1.0 -1.8125q-0.71875 -0.625 -1.75 -0.625q-1.53125 0 -2.5 1.109375q-0.96875 1.109375 -0.96875 3.5q0 2.421875 0.921875 3.53125q0.9375 1.09375 2.4375 1.09375q1.203125 0 2.0 -0.734375q0.8125 -0.734375 1.03125 -2.265625zm8.203125 2.578125l0.296875 1.8125q-0.859375 0.171875 -1.546875 0.171875q-1.109375 0 -1.71875 -0.34375q-0.609375 -0.359375 -0.859375 -0.921875q-0.25 -0.578125 -0.25 -2.421875l0 -6.921875l-1.5 0l0 -1.59375l1.5 0l0 -2.96875l2.03125 -1.234375l0 4.203125l2.046875 0l0 1.59375l-2.046875 0l0 7.046875q0 0.859375 0.109375 1.109375q0.109375 0.25 0.34375 0.40625q0.25 0.140625 0.703125 0.140625q0.34375 0 0.890625 -0.078125zm2.0134277 -12.453125l0 -2.34375l2.03125 0l0 2.34375l-2.03125 0zm0 14.28125l0 -12.046875l2.03125 0l0 12.046875l-2.03125 0zm4.3771973 -6.015625q0 -3.34375 1.859375 -4.953125q1.5625 -1.34375 3.796875 -1.34375q2.484375 0 4.046875 1.625q1.578125 1.625 1.578125 4.5q0 2.328125 -0.703125 3.65625q-0.6875 1.328125 -2.015625 2.0625q-1.328125 0.734375 -2.90625 0.734375q-2.53125 0 -4.09375 -1.609375q-1.5625 -1.625 -1.5625 -4.671875zm2.109375 0q0 2.3125 1.0 3.46875q1.015625 1.140625 2.546875 1.140625q1.515625 0 2.515625 -1.15625q1.015625 -1.15625 1.015625 -3.53125q0 -2.234375 -1.015625 -3.375q-1.015625 -1.15625 -2.515625 -1.15625q-1.53125 0 -2.546875 1.15625q-1.0 1.140625 -1.0 3.453125zm11.569397 6.015625l0 -12.046875l1.828125 0l0 1.71875q1.328125 -1.984375 3.84375 -1.984375q1.078125 0 1.984375 0.390625q0.921875 0.390625 1.375 1.03125q0.453125 0.625 0.640625 1.5q0.109375 0.5625 0.109375 1.984375l0 7.40625l-2.03125 0l0 -7.328125q0 -1.25 -0.25 -1.859375q-0.234375 -0.625 -0.84375 -0.984375q-0.609375 -0.375 -1.421875 -0.375q-1.296875 0 -2.25 0.828125q-0.9375 0.828125 -0.9375 3.140625l0 6.578125l-2.046875 0z" fill-rule="nonzero"/><path fill="#eb516c" d="m614.9911 354.84338l0 0c0 -6.479553 5.2526855 -11.732269 11.732239 -11.732269l24.986877 0l-91.55774 -27.426788l146.63647 27.426788l116.78479 0c3.1116333 0 6.095764 1.236084 8.2960205 3.4363098c2.2001953 2.2002258 3.4362793 5.184387 3.4362793 8.295959l0 0l0 0l0 17.59845l0 29.330688c0 6.479553 -5.2527466 11.7323 -11.7323 11.7323l-116.78479 0l-55.078735 0l0 0l-24.986877 0c-6.479553 0 -11.732239 -5.2527466 -11.732239 -11.7323l0 -29.330688l0 -17.59845l0 0z" fill-rule="evenodd"/><path stroke="#000000" stroke-width="2.1784776902887137" stroke-linejoin="round" stroke-linecap="butt" d="m614.9911 354.84338l0 0c0 -6.479553 5.2526855 -11.732269 11.732239 -11.732269l24.986877 0l-91.55774 -27.426788l146.63647 27.426788l116.78479 0c3.1116333 0 6.095764 1.236084 8.2960205 3.4363098c2.2001953 2.2002258 3.4362793 5.184387 3.4362793 8.295959l0 0l0 0l0 17.59845l0 29.330688c0 6.479553 -5.2527466 11.7323 -11.7323 11.7323l-116.78479 0l-55.078735 0l0 0l-24.986877 0c-6.479553 0 -11.732239 -5.2527466 -11.732239 -11.7323l0 -29.330688l0 -17.59845l0 0z" fill-rule="evenodd"/><path fill="#ffffff" d="m699.022 371.18533l0 -20.78125l2.75 0l0 18.328125l10.234375 0l0 2.453125l-12.984375 0zm26.239502 -4.84375l2.640625 0.328125q-0.625 2.296875 -2.3125 3.578125q-1.6875 1.28125 -4.3125 1.28125q-3.296875 0 -5.234375 -2.03125q-1.9375 -2.046875 -1.9375 -5.71875q0 -3.796875 1.953125 -5.890625q1.953125 -2.09375 5.078125 -2.09375q3.015625 0 4.921875 2.0625q1.921875 2.046875 1.921875 5.765625q0 0.234375 -0.015625 0.6875l-11.21875 0q0.140625 2.484375 1.390625 3.8125q1.265625 1.3125 3.15625 1.3125q1.40625 0 2.390625 -0.734375q1.0 -0.75 1.578125 -2.359375zm-8.375 -4.125l8.40625 0q-0.171875 -1.90625 -0.96875 -2.859375q-1.21875 -1.46875 -3.15625 -1.46875q-1.765625 0 -2.96875 1.1875q-1.1875 1.171875 -1.3125 3.140625zm24.036438 7.109375q-1.421875 1.203125 -2.734375 1.703125q-1.296875 0.5 -2.8125 0.5q-2.46875 0 -3.8125 -1.203125q-1.328125 -1.21875 -1.328125 -3.109375q0 -1.109375 0.5 -2.015625q0.515625 -0.921875 1.328125 -1.46875q0.8125 -0.5625 1.828125 -0.84375q0.75 -0.1875 2.265625 -0.375q3.09375 -0.375 4.5625 -0.875q0 -0.53125 0 -0.671875q0 -1.5625 -0.71875 -2.203125q-0.96875 -0.859375 -2.90625 -0.859375q-1.796875 0 -2.65625 0.640625q-0.859375 0.625 -1.265625 2.21875l-2.5 -0.34375q0.34375 -1.59375 1.125 -2.578125q0.78125 -0.984375 2.25 -1.515625q1.484375 -0.53125 3.421875 -0.53125q1.921875 0 3.125 0.453125q1.203125 0.453125 1.765625 1.140625q0.578125 0.6875 0.8125 1.734375q0.125 0.65625 0.125 2.359375l0 3.390625q0 3.5625 0.15625 4.515625q0.171875 0.9375 0.640625 1.796875l-2.65625 0q-0.40625 -0.796875 -0.515625 -1.859375zm-0.203125 -5.703125q-1.390625 0.578125 -4.171875 0.96875q-1.578125 0.234375 -2.234375 0.515625q-0.640625 0.28125 -1.0 0.828125q-0.359375 0.546875 -0.359375 1.203125q0 1.03125 0.765625 1.71875q0.78125 0.671875 2.265625 0.671875q1.484375 0 2.625 -0.640625q1.15625 -0.65625 1.6875 -1.765625q0.421875 -0.875 0.421875 -2.5625l0 -0.9375zm7.130188 7.5625l0 -13.0625l-2.25 0l0 -1.984375l2.25 0l0 -1.609375q0 -1.515625 0.28125 -2.25q0.359375 -1.0 1.28125 -1.609375q0.9375 -0.625 2.609375 -0.625q1.078125 0 2.390625 0.265625l-0.390625 2.21875q-0.796875 -0.140625 -1.5 -0.140625q-1.15625 0 -1.640625 0.5q-0.484375 0.5 -0.484375 1.859375l0 1.390625l2.9375 0l0 1.984375l-2.9375 0l0 13.0625l-2.546875 0z" fill-rule="nonzero"/><path fill="#ffffff" d="m668.36163 399.51346l2.59375 -0.234375q0.1875 1.5625 0.859375 2.5625q0.671875 1.0 2.09375 1.625q1.421875 0.609375 3.1875 0.609375q1.578125 0 2.78125 -0.46875q1.203125 -0.46875 1.796875 -1.28125q0.59375 -0.8125 0.59375 -1.78125q0 -0.984375 -0.578125 -1.703125q-0.5625 -0.734375 -1.859375 -1.234375q-0.84375 -0.328125 -3.71875 -1.015625q-2.859375 -0.6875 -4.0 -1.296875q-1.484375 -0.78125 -2.21875 -1.9375q-0.734375 -1.15625 -0.734375 -2.578125q0 -1.578125 0.890625 -2.9375q0.90625 -1.375 2.609375 -2.078125q1.71875 -0.71875 3.8125 -0.71875q2.3125 0 4.078125 0.75q1.765625 0.75 2.71875 2.203125q0.953125 1.4375 1.015625 3.265625l-2.625 0.1875q-0.21875 -1.96875 -1.453125 -2.96875q-1.21875 -1.015625 -3.609375 -1.015625q-2.5 0 -3.640625 0.921875q-1.140625 0.90625 -1.140625 2.203125q0 1.125 0.8125 1.84375q0.78125 0.71875 4.140625 1.484375q3.359375 0.75 4.59375 1.328125q1.828125 0.828125 2.6875 2.109375q0.859375 1.28125 0.859375 2.953125q0 1.671875 -0.953125 3.140625q-0.9375 1.453125 -2.71875 2.28125q-1.78125 0.8125 -4.015625 0.8125q-2.8125 0 -4.71875 -0.828125q-1.90625 -0.828125 -3.0 -2.46875q-1.078125 -1.65625 -1.140625 -3.734375zm22.754272 6.671875l-4.609375 -15.046875l2.640625 0l2.40625 8.6875l0.890625 3.234375q0.046875 -0.25 0.78125 -3.109375l2.390625 -8.8125l2.625 0l2.25 8.71875l0.75 2.890625l0.859375 -2.90625l2.59375 -8.703125l2.46875 0l-4.703125 15.046875l-2.65625 0l-2.390625 -9.015625l-0.578125 -2.5625l-3.046875 11.578125l-2.671875 0zm18.19983 -17.84375l0 -2.9375l2.5625 0l0 2.9375l-2.5625 0zm0 17.84375l0 -15.046875l2.5625 0l0 15.046875l-2.5625 0zm12.012268 -2.28125l0.375 2.25q-1.078125 0.234375 -1.9375 0.234375q-1.390625 0 -2.15625 -0.4375q-0.765625 -0.453125 -1.078125 -1.15625q-0.3125 -0.71875 -0.3125 -3.015625l0 -8.65625l-1.859375 0l0 -1.984375l1.859375 0l0 -3.734375l2.546875 -1.53125l0 5.265625l2.5625 0l0 1.984375l-2.5625 0l0 8.796875q0 1.09375 0.125 1.40625q0.140625 0.3125 0.4375 0.5q0.3125 0.171875 0.875 0.171875q0.4375 0 1.125 -0.09375zm12.315857 -3.234375l2.515625 0.328125q-0.421875 2.59375 -2.109375 4.0625q-1.6875 1.46875 -4.15625 1.46875q-3.09375 0 -4.96875 -2.015625q-1.875 -2.03125 -1.875 -5.796875q0 -2.4375 0.796875 -4.265625q0.8125 -1.828125 2.453125 -2.734375q1.65625 -0.921875 3.609375 -0.921875q2.453125 0 4.0 1.25q1.5625 1.234375 2.0 3.515625l-2.46875 0.375q-0.359375 -1.515625 -1.265625 -2.28125q-0.890625 -0.765625 -2.171875 -0.765625q-1.921875 0 -3.140625 1.390625q-1.203125 1.375 -1.203125 4.359375q0 3.046875 1.15625 4.421875q1.171875 1.375 3.046875 1.375q1.5 0 2.5 -0.921875q1.015625 -0.921875 1.28125 -2.84375zm4.6875 5.515625l0 -20.78125l2.5625 0l0 7.453125q1.78125 -2.0625 4.5 -2.0625q1.671875 0 2.90625 0.65625q1.234375 0.65625 1.765625 1.828125q0.53125 1.15625 0.53125 3.359375l0 9.546875l-2.546875 0l0 -9.546875q0 -1.90625 -0.828125 -2.78125q-0.828125 -0.875 -2.34375 -0.875q-1.140625 0 -2.140625 0.59375q-1.0 0.59375 -1.421875 1.59375q-0.421875 1.0 -0.421875 2.78125l0 8.234375l-2.5625 0zm26.458252 -4.84375l2.640625 0.328125q-0.625 2.296875 -2.3125 3.578125q-1.6875 1.28125 -4.3125 1.28125q-3.296875 0 -5.234375 -2.03125q-1.9375 -2.046875 -1.9375 -5.71875q0 -3.796875 1.953125 -5.890625q1.953125 -2.09375 5.078125 -2.09375q3.015625 0 4.921875 2.0625q1.921875 2.046875 1.921875 5.765625q0 0.234375 -0.015625 0.6875l-11.21875 0q0.140625 2.484375 1.390625 3.8125q1.265625 1.3125 3.15625 1.3125q1.40625 0 2.390625 -0.734375q1.0 -0.75 1.578125 -2.359375zm-8.375 -4.125l8.40625 0q-0.171875 -1.90625 -0.96875 -2.859375q-1.21875 -1.46875 -3.15625 -1.46875q-1.765625 0 -2.96875 1.1875q-1.1875 1.171875 -1.3125 3.140625zm13.192688 4.46875l2.53125 -0.390625q0.203125 1.515625 1.171875 2.328125q0.984375 0.8125 2.71875 0.8125q1.765625 0 2.609375 -0.71875q0.84375 -0.71875 0.84375 -1.6875q0 -0.859375 -0.75 -1.359375q-0.515625 -0.34375 -2.609375 -0.859375q-2.796875 -0.71875 -3.890625 -1.234375q-1.078125 -0.515625 -1.640625 -1.421875q-0.5625 -0.921875 -0.5625 -2.03125q0 -1.0 0.453125 -1.859375q0.46875 -0.859375 1.265625 -1.421875q0.59375 -0.4375 1.625 -0.734375q1.03125 -0.3125 2.203125 -0.3125q1.78125 0 3.109375 0.515625q1.34375 0.5 1.984375 1.375q0.640625 0.875 0.875 2.328125l-2.5 0.34375q-0.171875 -1.171875 -0.984375 -1.8125q-0.8125 -0.65625 -2.296875 -0.65625q-1.765625 0 -2.515625 0.578125q-0.75 0.578125 -0.75 1.359375q0 0.5 0.3125 0.890625q0.3125 0.421875 0.984375 0.6875q0.375 0.140625 2.25 0.65625q2.703125 0.71875 3.765625 1.1875q1.078125 0.453125 1.6875 1.328125q0.609375 0.875 0.609375 2.1875q0 1.28125 -0.75 2.40625q-0.734375 1.125 -2.140625 1.75q-1.40625 0.609375 -3.171875 0.609375q-2.9375 0 -4.484375 -1.21875q-1.53125 -1.21875 -1.953125 -3.625z" fill-rule="nonzero"/><path fill="#eb516c" d="m523.92426 527.9166l0 0c0 -6.479553 5.2527466 -11.7323 11.7323 -11.7323l24.986877 0l-91.55777 -27.426758l146.6365 27.426758l116.78479 0c3.1115723 0 6.095703 1.236084 8.295959 3.4363403c2.2001953 2.2001953 3.4362793 5.184387 3.4362793 8.295959l0 0l0 0l0 17.59845l0 29.330688c0 6.479553 -5.2526855 11.7323 -11.732239 11.7323l-116.78479 0l-55.078735 0l0 0l-24.986877 0c-6.479553 0 -11.7323 -5.2527466 -11.7323 -11.7323l0 -29.330688l0 -17.59845l0 0z" fill-rule="evenodd"/><path stroke="#000000" stroke-width="2.1784776902887137" stroke-linejoin="round" stroke-linecap="butt" d="m523.92426 527.9166l0 0c0 -6.479553 5.2527466 -11.7323 11.7323 -11.7323l24.986877 0l-91.55777 -27.426758l146.6365 27.426758l116.78479 0c3.1115723 0 6.095703 1.236084 8.295959 3.4363403c2.2001953 2.2001953 3.4362793 5.184387 3.4362793 8.295959l0 0l0 0l0 17.59845l0 29.330688c0 6.479553 -5.2526855 11.7323 -11.732239 11.7323l-116.78479 0l-55.078735 0l0 0l-24.986877 0c-6.479553 0 -11.7323 -5.2527466 -11.7323 -11.7323l0 -29.330688l0 -17.59845l0 0z" fill-rule="evenodd"/><path fill="#ffffff" d="m570.8309 555.0867l2.59375 -0.234375q0.1875 1.5625 0.859375 2.5625q0.671875 1.0 2.09375 1.625q1.421875 0.609375 3.1875 0.609375q1.578125 0 2.78125 -0.46875q1.203125 -0.46875 1.796875 -1.28125q0.59375 -0.8125 0.59375 -1.78125q0 -0.984375 -0.578125 -1.703125q-0.5625 -0.734375 -1.859375 -1.234375q-0.84375 -0.328125 -3.71875 -1.015625q-2.859375 -0.6875 -4.0 -1.296875q-1.484375 -0.78125 -2.21875 -1.9375q-0.734375 -1.15625 -0.734375 -2.578125q0 -1.578125 0.890625 -2.9375q0.90625 -1.375 2.609375 -2.078125q1.71875 -0.71875 3.8125 -0.71875q2.3125 0 4.078125 0.75q1.765625 0.75 2.71875 2.203125q0.953125 1.4375 1.015625 3.265625l-2.625 0.1875q-0.21875 -1.96875 -1.453125 -2.96875q-1.21875 -1.015625 -3.609375 -1.015625q-2.5 0 -3.640625 0.921875q-1.140625 0.90625 -1.140625 2.203125q0 1.125 0.8125 1.84375q0.78125 0.71875 4.140625 1.484375q3.359375 0.75 4.59375 1.328125q1.828125 0.828125 2.6875 2.109375q0.859375 1.28125 0.859375 2.953125q0 1.671875 -0.953125 3.140625q-0.9375 1.453125 -2.71875 2.28125q-1.78125 0.8125 -4.015625 0.8125q-2.8125 0 -4.71875 -0.828125q-1.90625 -0.828125 -3.0 -2.46875q-1.078125 -1.65625 -1.140625 -3.734375zm19.035461 -0.859375q0 -4.171875 2.3125 -6.1875q1.953125 -1.671875 4.734375 -1.671875q3.109375 0 5.078125 2.03125q1.96875 2.03125 1.96875 5.625q0 2.90625 -0.875 4.578125q-0.859375 1.65625 -2.53125 2.578125q-1.65625 0.921875 -3.640625 0.921875q-3.15625 0 -5.109375 -2.03125q-1.9375 -2.03125 -1.9375 -5.84375zm2.625 0q0 2.890625 1.25 4.34375q1.265625 1.4375 3.171875 1.4375q1.90625 0 3.171875 -1.453125q1.265625 -1.453125 1.265625 -4.40625q0 -2.796875 -1.28125 -4.234375q-1.265625 -1.4375 -3.15625 -1.4375q-1.90625 0 -3.171875 1.4375q-1.25 1.421875 -1.25 4.3125zm15.067688 7.53125l0 -13.0625l-2.25 0l0 -1.984375l2.25 0l0 -1.609375q0 -1.515625 0.28125 -2.25q0.359375 -1.0 1.28125 -1.609375q0.9375 -0.625 2.609375 -0.625q1.078125 0 2.390625 0.265625l-0.390625 2.21875q-0.796875 -0.140625 -1.5 -0.140625q-1.15625 0 -1.640625 0.5q-0.484375 0.5 -0.484375 1.859375l0 1.390625l2.9375 0l0 1.984375l-2.9375 0l0 13.0625l-2.546875 0zm13.034546 -2.28125l0.375 2.25q-1.078125 0.234375 -1.9375 0.234375q-1.390625 0 -2.15625 -0.4375q-0.765625 -0.453125 -1.078125 -1.15625q-0.3125 -0.71875 -0.3125 -3.015625l0 -8.65625l-1.859375 0l0 -1.984375l1.859375 0l0 -3.734375l2.546875 -1.53125l0 5.265625l2.5625 0l0 1.984375l-2.5625 0l0 8.796875q0 1.09375 0.125 1.40625q0.140625 0.3125 0.4375 0.5q0.3125 0.171875 0.875 0.171875q0.4375 0 1.125 -0.09375zm12.550232 -5.875l0 -2.4375l8.796875 -0.015625l0 7.71875q-2.03125 1.609375 -4.1875 2.4375q-2.140625 0.8125 -4.421875 0.8125q-3.0625 0 -5.5625 -1.3125q-2.5 -1.3125 -3.78125 -3.796875q-1.265625 -2.484375 -1.265625 -5.546875q0 -3.03125 1.265625 -5.65625q1.265625 -2.625 3.640625 -3.90625q2.390625 -1.28125 5.5 -1.28125q2.25 0 4.0625 0.734375q1.828125 0.734375 2.859375 2.046875q1.046875 1.296875 1.578125 3.390625l-2.484375 0.6875q-0.46875 -1.59375 -1.15625 -2.5q-0.6875 -0.90625 -1.984375 -1.453125q-1.296875 -0.546875 -2.859375 -0.546875q-1.890625 0 -3.265625 0.578125q-1.375 0.5625 -2.21875 1.5q-0.84375 0.9375 -1.3125 2.0625q-0.796875 1.921875 -0.796875 4.171875q0 2.78125 0.953125 4.65625q0.96875 1.875 2.796875 2.78125q1.828125 0.90625 3.875 0.90625q1.796875 0 3.484375 -0.6875q1.703125 -0.6875 2.59375 -1.46875l0 -3.875l-6.109375 0zm22.347046 6.296875q-1.421875 1.203125 -2.734375 1.703125q-1.296875 0.5 -2.8125 0.5q-2.46875 0 -3.8125 -1.203125q-1.328125 -1.21875 -1.328125 -3.109375q0 -1.109375 0.5 -2.015625q0.515625 -0.921875 1.328125 -1.46875q0.8125 -0.5625 1.828125 -0.84375q0.75 -0.1875 2.265625 -0.375q3.09375 -0.375 4.5625 -0.875q0 -0.53125 0 -0.671875q0 -1.5625 -0.71875 -2.203125q-0.96875 -0.859375 -2.90625 -0.859375q-1.796875 0 -2.65625 0.640625q-0.859375 0.625 -1.265625 2.21875l-2.5 -0.34375q0.34375 -1.59375 1.125 -2.578125q0.78125 -0.984375 2.25 -1.515625q1.484375 -0.53125 3.421875 -0.53125q1.921875 0 3.125 0.453125q1.203125 0.453125 1.765625 1.140625q0.578125 0.6875 0.8125 1.734375q0.125 0.65625 0.125 2.359375l0 3.390625q0 3.5625 0.15625 4.515625q0.171875 0.9375 0.640625 1.796875l-2.65625 0q-0.40625 -0.796875 -0.515625 -1.859375zm-0.203125 -5.703125q-1.390625 0.578125 -4.171875 0.96875q-1.578125 0.234375 -2.234375 0.515625q-0.640625 0.28125 -1.0 0.828125q-0.359375 0.546875 -0.359375 1.203125q0 1.03125 0.765625 1.71875q0.78125 0.671875 2.265625 0.671875q1.484375 0 2.625 -0.640625q1.15625 -0.65625 1.6875 -1.765625q0.421875 -0.875 0.421875 -2.5625l0 -0.9375zm12.098938 5.28125l0.375 2.25q-1.078125 0.234375 -1.9375 0.234375q-1.390625 0 -2.15625 -0.4375q-0.765625 -0.453125 -1.078125 -1.15625q-0.3125 -0.71875 -0.3125 -3.015625l0 -8.65625l-1.859375 0l0 -1.984375l1.859375 0l0 -3.734375l2.546875 -1.53125l0 5.265625l2.5625 0l0 1.984375l-2.5625 0l0 8.796875q0 1.09375 0.125 1.40625q0.140625 0.3125 0.4375 0.5q0.3125 0.171875 0.875 0.171875q0.4375 0 1.125 -0.09375zm12.800171 -2.5625l2.640625 0.328125q-0.625 2.296875 -2.3125 3.578125q-1.6875 1.28125 -4.3125 1.28125q-3.296875 0 -5.234375 -2.03125q-1.9375 -2.046875 -1.9375 -5.71875q0 -3.796875 1.953125 -5.890625q1.953125 -2.09375 5.078125 -2.09375q3.015625 0 4.921875 2.0625q1.921875 2.046875 1.921875 5.765625q0 0.234375 -0.015625 0.6875l-11.21875 0q0.140625 2.484375 1.390625 3.8125q1.265625 1.3125 3.15625 1.3125q1.40625 0 2.390625 -0.734375q1.0 -0.75 1.578125 -2.359375zm-8.375 -4.125l8.40625 0q-0.171875 -1.90625 -0.96875 -2.859375q-1.21875 -1.46875 -3.15625 -1.46875q-1.765625 0 -2.96875 1.1875q-1.1875 1.171875 -1.3125 3.140625zm13.192688 4.46875l2.53125 -0.390625q0.203125 1.515625 1.171875 2.328125q0.984375 0.8125 2.71875 0.8125q1.765625 0 2.609375 -0.71875q0.84375 -0.71875 0.84375 -1.6875q0 -0.859375 -0.75 -1.359375q-0.515625 -0.34375 -2.609375 -0.859375q-2.796875 -0.71875 -3.890625 -1.234375q-1.078125 -0.515625 -1.640625 -1.421875q-0.5625 -0.921875 -0.5625 -2.03125q0 -1.0 0.453125 -1.859375q0.46875 -0.859375 1.265625 -1.421875q0.59375 -0.4375 1.625 -0.734375q1.03125 -0.3125 2.203125 -0.3125q1.78125 0 3.109375 0.515625q1.34375 0.5 1.984375 1.375q0.640625 0.875 0.875 2.328125l-2.5 0.34375q-0.171875 -1.171875 -0.984375 -1.8125q-0.8125 -0.65625 -2.296875 -0.65625q-1.765625 0 -2.515625 0.578125q-0.75 0.578125 -0.75 1.359375q0 0.5 0.3125 0.890625q0.3125 0.421875 0.984375 0.6875q0.375 0.140625 2.25 0.65625q2.703125 0.71875 3.765625 1.1875q1.078125 0.453125 1.6875 1.328125q0.609375 0.875 0.609375 2.1875q0 1.28125 -0.75 2.40625q-0.734375 1.125 -2.140625 1.75q-1.40625 0.609375 -3.171875 0.609375q-2.9375 0 -4.484375 -1.21875q-1.53125 -1.21875 -1.953125 -3.625z" fill-rule="nonzero"/></g></svg>